<svg xmlns="http://www.w3.org/2000/svg" xmlns:xlink="http://www.w3.org/1999/xlink" width="359" zoomAndPan="magnify" viewBox="0 0 269.25 269.249989" height="359" preserveAspectRatio="xMidYMid meet" version="1.0"><defs><g/><clipPath id="157125f7de"><path d="M 13 18 L 251.742188 18 L 251.742188 201 L 13 201 Z M 13 18 " clip-rule="nonzero"/></clipPath><clipPath id="4a824127c5"><path d="M 0.480469 0.851562 L 201 0.851562 L 201 188 L 0.480469 188 Z M 0.480469 0.851562 " clip-rule="nonzero"/></clipPath><clipPath id="dd540ff88b"><path d="M 47 200 L 205 200 L 205 232.71875 L 47 232.71875 Z M 47 200 " clip-rule="nonzero"/></clipPath><clipPath id="0201799dc6"><rect x="0" width="158" y="0" height="33"/></clipPath><clipPath id="ee4587b9c6"><rect x="0" width="253" y="0" height="233"/></clipPath></defs><g transform="matrix(1, 0, 0, 1, 8, 26)"><g clip-path="url(#ee4587b9c6)"><g clip-path="url(#157125f7de)"><path fill="#1c1c1c" d="M 240.65625 46 L 225.320312 45.96875 L 225.320312 45.035156 C 225.320312 39.523438 220.855469 35.058594 215.34375 35.058594 L 111.246094 35.058594 L 101.039062 21.59375 C 99.398438 19.773438 97.058594 18.734375 94.601562 18.734375 L 23.507812 18.734375 C 18.714844 18.734375 14.832031 22.617188 14.832031 27.410156 L 13.550781 183.199219 C 13.472656 192.941406 21.359375 200.875 31.105469 200.847656 L 32.246094 200.847656 C 32.40625 200.851562 32.550781 200.898438 32.714844 200.898438 L 217.976562 200.898438 C 225.125 200.898438 231.824219 195.113281 232.867188 188.042969 L 251.878906 59.171875 C 252.949219 51.917969 247.925781 46.015625 240.65625 46 Z M 240.65625 46 " fill-opacity="1" fill-rule="nonzero"/></g><path fill="#ffa51f" d="M 2.792969 184.679688 L 2.722656 11.796875 C 2.722656 7.003906 6.605469 3.121094 11.398438 3.121094 L 82.492188 3.121094 C 84.949219 3.121094 87.289062 4.160156 88.933594 5.980469 L 120.386719 47.476562 C 121.804688 49.046875 123.746094 50.042969 125.847656 50.28125 L 190.054688 57.550781 C 194.453125 58.050781 197.773438 61.78125 197.753906 66.207031 L 171.953125 184.820312 Z M 2.792969 184.679688 " fill-opacity="1" fill-rule="nonzero"/><g clip-path="url(#4a824127c5)"><path fill="#1c1c1c" d="M 7.882812 187.507812 C 5.90625 187.507812 4.054688 186.742188 2.65625 185.347656 C 1.253906 183.949219 0.480469 182.089844 0.480469 180.109375 L 0.480469 10.652344 C 0.480469 5.261719 4.863281 0.878906 10.253906 0.878906 L 87.445312 0.878906 L 123.773438 47.792969 L 200.472656 56.476562 L 173.78125 187.058594 L 7.902344 187.507812 Z M 10.253906 5.359375 C 7.335938 5.359375 4.960938 7.734375 4.960938 10.652344 L 4.960938 180.109375 C 4.960938 180.886719 5.269531 181.621094 5.820312 182.171875 C 6.371094 182.726562 7.101562 183.027344 7.882812 183.027344 L 7.890625 183.027344 L 170.121094 182.585938 L 195.097656 60.378906 L 121.394531 52.03125 L 85.25 5.359375 Z M 10.253906 5.359375 " fill-opacity="1" fill-rule="nonzero"/></g><path fill="#ffffff" d="M 21.464844 19.445312 L 203.234375 19.445312 C 203.890625 19.445312 204.539062 19.507812 205.183594 19.636719 C 205.824219 19.761719 206.449219 19.953125 207.054688 20.203125 C 207.660156 20.453125 208.234375 20.761719 208.777344 21.125 C 209.324219 21.488281 209.828125 21.902344 210.289062 22.367188 C 210.753906 22.828125 211.167969 23.332031 211.53125 23.878906 C 211.894531 24.421875 212.203125 24.996094 212.453125 25.601562 C 212.703125 26.207031 212.894531 26.832031 213.019531 27.472656 C 213.148438 28.117188 213.210938 28.765625 213.210938 29.421875 L 213.210938 168.027344 C 213.210938 168.683594 213.148438 169.332031 213.019531 169.976562 C 212.894531 170.617188 212.703125 171.242188 212.453125 171.847656 C 212.203125 172.453125 211.894531 173.027344 211.53125 173.570312 C 211.167969 174.117188 210.753906 174.621094 210.289062 175.082031 C 209.828125 175.546875 209.324219 175.960938 208.777344 176.324219 C 208.234375 176.6875 207.660156 176.996094 207.054688 177.246094 C 206.449219 177.496094 205.824219 177.6875 205.183594 177.8125 C 204.539062 177.941406 203.890625 178.003906 203.234375 178.003906 L 21.464844 178.003906 C 20.8125 178.003906 20.164062 177.941406 19.519531 177.8125 C 18.878906 177.6875 18.253906 177.496094 17.648438 177.246094 C 17.042969 176.996094 16.46875 176.6875 15.921875 176.324219 C 15.378906 175.960938 14.875 175.546875 14.410156 175.082031 C 13.949219 174.621094 13.535156 174.117188 13.171875 173.570312 C 12.808594 173.027344 12.5 172.453125 12.25 171.847656 C 12 171.242188 11.808594 170.617188 11.679688 169.976562 C 11.554688 169.332031 11.488281 168.683594 11.488281 168.027344 L 11.488281 29.421875 C 11.488281 28.765625 11.554688 28.117188 11.679688 27.472656 C 11.808594 26.832031 12 26.207031 12.25 25.601562 C 12.5 24.996094 12.808594 24.421875 13.171875 23.878906 C 13.535156 23.332031 13.949219 22.828125 14.410156 22.367188 C 14.875 21.902344 15.378906 21.488281 15.921875 21.125 C 16.46875 20.761719 17.042969 20.453125 17.648438 20.203125 C 18.253906 19.953125 18.878906 19.761719 19.519531 19.636719 C 20.164062 19.507812 20.8125 19.445312 21.464844 19.445312 Z M 21.464844 19.445312 " fill-opacity="1" fill-rule="nonzero"/><path fill="#1c1c1c" d="M 203.238281 180.246094 L 21.464844 180.246094 C 14.726562 180.246094 9.246094 174.765625 9.246094 168.03125 L 9.246094 29.417969 C 9.246094 22.679688 14.726562 17.199219 21.464844 17.199219 L 203.238281 17.199219 C 209.976562 17.199219 215.457031 22.679688 215.457031 29.417969 L 215.457031 168.03125 C 215.457031 174.765625 209.976562 180.246094 203.238281 180.246094 Z M 21.464844 21.683594 C 17.199219 21.683594 13.730469 25.15625 13.730469 29.417969 L 13.730469 168.03125 C 13.730469 172.292969 17.199219 175.765625 21.464844 175.765625 L 203.238281 175.765625 C 207.5 175.765625 210.972656 172.292969 210.972656 168.03125 L 210.972656 29.417969 C 210.972656 25.15625 207.5 21.683594 203.238281 21.683594 Z M 21.464844 21.683594 " fill-opacity="1" fill-rule="nonzero"/><path fill="#ffbd59" d="M 205.867188 185.28125 L 20.605469 185.28125 C 14.5625 185.28125 9.894531 179.972656 10.675781 173.980469 L 27.699219 43.097656 C 28.640625 35.882812 35.359375 29.992188 42.632812 30.007812 L 228.546875 30.386719 C 235.816406 30.402344 240.839844 36.300781 239.769531 43.558594 L 220.757812 172.425781 C 219.714844 179.496094 213.015625 185.28125 205.867188 185.28125 Z M 205.867188 185.28125 " fill-opacity="1" fill-rule="nonzero"/><path fill="#1c1c1c" d="M 205.867188 187.523438 L 13.90625 187.523438 C 12.070312 187.523438 10.324219 186.730469 9.117188 185.351562 C 7.90625 183.976562 7.351562 182.148438 7.589844 180.332031 L 25.480469 42.808594 C 26.558594 34.507812 34.234375 27.769531 42.601562 27.769531 L 42.636719 27.769531 L 228.554688 28.144531 C 232.707031 28.152344 236.398438 29.789062 238.945312 32.753906 C 241.523438 35.75 242.605469 39.699219 241.984375 43.886719 L 222.976562 172.753906 C 221.777344 180.894531 214.101562 187.523438 205.867188 187.523438 Z M 42.601562 32.25 C 36.511719 32.25 30.710938 37.34375 29.925781 43.386719 L 12.035156 180.914062 C 11.9375 181.648438 12.277344 182.160156 12.484375 182.398438 C 12.851562 182.8125 13.351562 183.039062 13.90625 183.039062 L 205.867188 183.039062 C 211.863281 183.039062 217.667969 178.027344 218.539062 172.097656 L 237.546875 43.230469 C 237.976562 40.351562 237.261719 37.667969 235.546875 35.679688 C 233.863281 33.71875 231.371094 32.636719 228.542969 32.625 L 42.628906 32.25 Z M 42.601562 32.25 " fill-opacity="1" fill-rule="nonzero"/><g clip-path="url(#dd540ff88b)"><g transform="matrix(1, 0, 0, 1, 47, 200)"><g clip-path="url(#0201799dc6)"><path fill="#ffffff" d="M 9.636719 1.285156 L 148.863281 1.285156 C 153.09375 1.285156 156.519531 4.710938 156.519531 8.941406 L 156.519531 24.253906 C 156.519531 28.484375 153.09375 31.910156 148.863281 31.910156 L 9.636719 31.910156 C 5.410156 31.910156 1.980469 28.484375 1.980469 24.253906 L 1.980469 8.941406 C 1.980469 4.710938 5.410156 1.285156 9.636719 1.285156 Z M 9.636719 1.285156 " fill-opacity="1" fill-rule="nonzero"/><g fill="#000000" fill-opacity="1"><g transform="translate(13.246001, 22.758232)"><g><path d="M 1.3125 0 L 1.3125 -1.3125 L 2.640625 -1.3125 L 2.640625 -10.5625 L 1.3125 -10.5625 L 1.3125 -11.875 L 5.28125 -11.875 L 5.28125 -10.5625 L 3.953125 -10.5625 L 3.953125 -1.3125 L 5.28125 -1.3125 L 5.28125 0 Z M 1.3125 0 "/></g></g><g transform="translate(22.046672, 22.758232)"><g/></g><g transform="translate(30.847344, 22.758232)"><g><path d="M 0 0 L 0 -11.875 L 1.09375 -11.875 L 3.296875 -7.484375 L 5.5 -11.875 L 6.59375 -11.875 L 6.59375 0 L 5.28125 0 L 5.28125 -8.796875 L 3.734375 -5.71875 L 2.859375 -5.71875 L 1.3125 -8.796875 L 1.3125 0 Z M 0 0 "/></g></g><g transform="translate(39.648016, 22.758232)"><g><path d="M 1.3125 0 L 1.3125 -1.3125 L 2.640625 -1.3125 L 2.640625 -10.5625 L 1.3125 -10.5625 L 1.3125 -11.875 L 5.28125 -11.875 L 5.28125 -10.5625 L 3.953125 -10.5625 L 3.953125 -1.3125 L 5.28125 -1.3125 L 5.28125 0 Z M 1.3125 0 "/></g></g><g transform="translate(48.448688, 22.758232)"><g><path d="M 0 0 L 0 -11.875 L 6.59375 -11.875 L 6.59375 -10.5625 L 1.3125 -10.5625 L 1.3125 -6.59375 L 5.28125 -6.59375 L 5.28125 -5.28125 L 1.3125 -5.28125 L 1.3125 -1.3125 L 6.59375 -1.3125 L 6.59375 0 Z M 0 0 "/></g></g><g transform="translate(57.249359, 22.758232)"><g><path d="M 1.3125 0 L 1.3125 -1.3125 L 2.640625 -1.3125 L 2.640625 -10.5625 L 1.3125 -10.5625 L 1.3125 -11.875 L 5.28125 -11.875 L 5.28125 -10.5625 L 3.953125 -10.5625 L 3.953125 -1.3125 L 5.28125 -1.3125 L 5.28125 0 Z M 1.3125 0 "/></g></g><g transform="translate(66.050031, 22.758232)"><g/></g><g transform="translate(74.850703, 22.758232)"><g><path d="M 3.953125 -6.59375 L 5.28125 -7.921875 L 5.28125 -9.234375 L 3.953125 -10.5625 L 1.3125 -10.5625 L 1.3125 -6.59375 Z M 0 0 L 0 -11.875 L 4.40625 -11.875 L 6.59375 -9.671875 L 6.59375 -7.484375 L 4.40625 -5.28125 L 1.3125 -5.28125 L 1.3125 0 Z M 0 0 "/></g></g><g transform="translate(83.651375, 22.758232)"><g><path d="M 3.953125 -6.59375 L 5.28125 -7.921875 L 5.28125 -9.234375 L 3.953125 -10.5625 L 1.3125 -10.5625 L 1.3125 -6.59375 Z M 0 0 L 0 -11.875 L 4.40625 -11.875 L 6.59375 -9.671875 L 6.59375 -7.484375 L 4.40625 -5.28125 L 4.171875 -5.28125 L 6.59375 -0.4375 L 5.71875 0 L 5.5 0 L 2.859375 -5.28125 L 1.3125 -5.28125 L 1.3125 0 Z M 0 0 "/></g></g><g transform="translate(92.452046, 22.758232)"><g><path d="M 3.953125 -1.3125 L 5.28125 -2.640625 L 5.28125 -9.234375 L 3.953125 -10.5625 L 2.640625 -10.5625 L 1.3125 -9.234375 L 1.3125 -2.640625 L 2.640625 -1.3125 Z M 2.203125 0 L 0 -2.203125 L 0 -9.671875 L 2.203125 -11.875 L 4.40625 -11.875 L 6.59375 -9.671875 L 6.59375 -2.203125 L 4.40625 0 Z M 2.203125 0 "/></g></g><g transform="translate(101.252718, 22.758232)"><g><path d="M 2.203125 0 L 0 -2.203125 L 0 -9.671875 L 2.203125 -11.875 L 4.40625 -11.875 L 6.59375 -9.671875 L 5.71875 -8.796875 L 3.953125 -10.5625 L 2.640625 -10.5625 L 1.3125 -9.234375 L 1.3125 -2.640625 L 2.640625 -1.3125 L 3.515625 -1.3125 L 5.28125 -3.078125 L 5.28125 -5.28125 L 2.640625 -5.28125 L 2.640625 -6.59375 L 6.59375 -6.59375 L 6.59375 0 L 5.28125 0 L 5.28125 -1.3125 L 3.953125 0 Z M 2.203125 0 "/></g></g><g transform="translate(110.05339, 22.758232)"><g><path d="M 0 0 L 0 -11.875 L 6.59375 -11.875 L 6.59375 -10.5625 L 1.3125 -10.5625 L 1.3125 -6.59375 L 5.28125 -6.59375 L 5.28125 -5.28125 L 1.3125 -5.28125 L 1.3125 -1.3125 L 6.59375 -1.3125 L 6.59375 0 Z M 0 0 "/></g></g><g transform="translate(118.854062, 22.758232)"><g><path d="M 2.640625 0 L 2.640625 -10.5625 L 0 -10.5625 L 0 -11.875 L 6.59375 -11.875 L 6.59375 -10.5625 L 3.953125 -10.5625 L 3.953125 0 Z M 2.640625 0 "/></g></g><g transform="translate(127.654733, 22.758232)"><g><path d="M 2.640625 0 L 2.640625 -10.5625 L 0 -10.5625 L 0 -11.875 L 6.59375 -11.875 L 6.59375 -10.5625 L 3.953125 -10.5625 L 3.953125 0 Z M 2.640625 0 "/></g></g><g transform="translate(136.455405, 22.758232)"><g><path d="M 1.3125 0 L 1.3125 -1.3125 L 2.640625 -1.3125 L 2.640625 -10.5625 L 1.3125 -10.5625 L 1.3125 -11.875 L 5.28125 -11.875 L 5.28125 -10.5625 L 3.953125 -10.5625 L 3.953125 -1.3125 L 5.28125 -1.3125 L 5.28125 0 Z M 1.3125 0 "/></g></g></g></g></g></g></g></g></svg>