<svg xmlns="http://www.w3.org/2000/svg" xmlns:xlink="http://www.w3.org/1999/xlink" width="359" zoomAndPan="magnify" viewBox="0 0 269.25 269.249989" height="359" preserveAspectRatio="xMidYMid meet" version="1.0"><defs><g/><clipPath id="97c2839078"><path d="M 12 16 L 215.46875 16 L 215.46875 171.347656 L 12 171.347656 Z M 12 16 " clip-rule="nonzero"/></clipPath><clipPath id="12c03a0c4d"><path d="M 0.851562 0.851562 L 172 0.851562 L 172 161 L 0.851562 161 Z M 0.851562 0.851562 " clip-rule="nonzero"/></clipPath><clipPath id="6a81dda078"><rect x="0" width="216" y="0" height="208"/></clipPath></defs><g transform="matrix(1, 0, 0, 1, 26, 26)"><g clip-path="url(#6a81dda078)"><g clip-path="url(#97c2839078)"><path fill="#1c1c1c" d="M 205.917969 39.371094 L 192.824219 39.34375 L 192.824219 38.546875 C 192.824219 33.84375 189.011719 30.03125 184.308594 30.03125 L 95.4375 30.03125 L 86.726562 18.535156 C 85.324219 16.980469 83.324219 16.09375 81.230469 16.09375 L 20.535156 16.09375 C 16.445312 16.09375 13.128906 19.410156 13.128906 23.5 L 12.035156 156.5 C 11.96875 164.816406 18.703125 171.589844 27.019531 171.566406 L 27.996094 171.5625 C 28.132812 171.570312 28.257812 171.609375 28.394531 171.609375 L 186.554688 171.609375 C 192.65625 171.609375 198.375 166.667969 199.265625 160.632812 L 215.496094 50.617188 C 216.410156 44.421875 212.121094 39.386719 205.917969 39.371094 Z M 205.917969 39.371094 " fill-opacity="1" fill-rule="nonzero"/></g><path fill="#ffa500" d="M 2.851562 157.765625 L 2.792969 10.171875 C 2.792969 6.082031 6.105469 2.765625 10.199219 2.765625 L 70.894531 2.765625 C 72.988281 2.765625 74.984375 3.652344 76.390625 5.207031 L 103.242188 40.632812 C 104.449219 41.972656 106.109375 42.824219 107.902344 43.027344 L 162.71875 49.234375 C 166.472656 49.660156 169.304688 52.84375 169.292969 56.621094 L 147.261719 157.882812 Z M 2.851562 157.765625 " fill-opacity="1" fill-rule="nonzero"/><g clip-path="url(#12c03a0c4d)"><path fill="#1c1c1c" d="M 7.195312 160.179688 C 5.511719 160.179688 3.929688 159.523438 2.734375 158.332031 C 1.539062 157.140625 0.875 155.550781 0.875 153.859375 L 0.875 9.195312 C 0.875 4.59375 4.621094 0.851562 9.222656 0.851562 L 75.121094 0.851562 L 106.132812 40.902344 L 171.609375 48.3125 L 148.824219 159.792969 L 7.214844 160.179688 Z M 9.222656 4.675781 C 6.726562 4.675781 4.703125 6.703125 4.703125 9.195312 L 4.703125 153.859375 C 4.703125 154.523438 4.964844 155.152344 5.433594 155.625 C 5.90625 156.09375 6.53125 156.351562 7.195312 156.351562 L 7.203125 156.351562 L 145.703125 155.976562 L 167.019531 51.648438 L 104.101562 44.519531 L 73.246094 4.675781 Z M 9.222656 4.675781 " fill-opacity="1" fill-rule="nonzero"/></g><path fill="#ffffff" d="M 18.792969 16.699219 L 173.96875 16.699219 C 174.53125 16.699219 175.082031 16.753906 175.632812 16.863281 C 176.179688 16.972656 176.714844 17.132812 177.230469 17.347656 C 177.746094 17.5625 178.238281 17.824219 178.703125 18.136719 C 179.167969 18.445312 179.597656 18.800781 179.992188 19.195312 C 180.386719 19.589844 180.742188 20.019531 181.050781 20.484375 C 181.363281 20.949219 181.625 21.441406 181.839844 21.957031 C 182.054688 22.472656 182.214844 23.007812 182.324219 23.554688 C 182.433594 24.105469 182.488281 24.65625 182.488281 25.21875 L 182.488281 143.546875 C 182.488281 144.105469 182.433594 144.660156 182.324219 145.210938 C 182.214844 145.757812 182.054688 146.289062 181.839844 146.808594 C 181.625 147.324219 181.363281 147.816406 181.050781 148.28125 C 180.742188 148.746094 180.386719 149.175781 179.992188 149.570312 C 179.597656 149.964844 179.167969 150.320312 178.703125 150.628906 C 178.238281 150.941406 177.746094 151.203125 177.230469 151.417969 C 176.714844 151.632812 176.179688 151.792969 175.632812 151.902344 C 175.082031 152.011719 174.53125 152.066406 173.96875 152.066406 L 18.792969 152.066406 C 18.234375 152.066406 17.679688 152.011719 17.132812 151.902344 C 16.582031 151.792969 16.050781 151.632812 15.535156 151.417969 C 15.015625 151.203125 14.527344 150.941406 14.0625 150.628906 C 13.597656 150.320312 13.164062 149.964844 12.769531 149.570312 C 12.375 149.175781 12.023438 148.746094 11.710938 148.28125 C 11.402344 147.816406 11.136719 147.324219 10.925781 146.808594 C 10.710938 146.289062 10.546875 145.757812 10.441406 145.210938 C 10.332031 144.660156 10.277344 144.105469 10.277344 143.546875 L 10.277344 25.21875 C 10.277344 24.65625 10.332031 24.105469 10.441406 23.554688 C 10.546875 23.007812 10.710938 22.472656 10.925781 21.957031 C 11.136719 21.441406 11.402344 20.949219 11.710938 20.484375 C 12.023438 20.019531 12.375 19.589844 12.769531 19.195312 C 13.164062 18.800781 13.597656 18.445312 14.0625 18.136719 C 14.527344 17.824219 15.015625 17.5625 15.535156 17.347656 C 16.050781 17.132812 16.582031 16.972656 17.132812 16.863281 C 17.679688 16.753906 18.234375 16.699219 18.792969 16.699219 Z M 18.792969 16.699219 " fill-opacity="1" fill-rule="nonzero"/><path fill="#1c1c1c" d="M 173.972656 153.980469 L 18.792969 153.980469 C 13.039062 153.980469 8.363281 149.300781 8.363281 143.550781 L 8.363281 25.214844 C 8.363281 19.464844 13.039062 14.785156 18.792969 14.785156 L 173.972656 14.785156 C 179.722656 14.785156 184.402344 19.464844 184.402344 25.214844 L 184.402344 143.550781 C 184.402344 149.300781 179.722656 153.980469 173.972656 153.980469 Z M 18.792969 18.613281 C 15.152344 18.613281 12.1875 21.574219 12.1875 25.214844 L 12.1875 143.550781 C 12.1875 147.1875 15.152344 150.152344 18.792969 150.152344 L 173.972656 150.152344 C 177.613281 150.152344 180.574219 147.1875 180.574219 143.550781 L 180.574219 25.214844 C 180.574219 21.574219 177.613281 18.613281 173.972656 18.613281 Z M 18.792969 18.613281 " fill-opacity="1" fill-rule="nonzero"/><path fill="#ffc574" d="M 176.21875 158.277344 L 18.058594 158.277344 C 12.898438 158.277344 8.914062 153.742188 9.582031 148.628906 L 24.117188 36.894531 C 24.917969 30.734375 30.652344 25.707031 36.863281 25.71875 L 195.582031 26.042969 C 201.785156 26.054688 206.070312 31.09375 205.15625 37.289062 L 188.929688 147.300781 C 188.039062 153.339844 182.320312 158.277344 176.21875 158.277344 Z M 176.21875 158.277344 " fill-opacity="1" fill-rule="nonzero"/><path fill="#1c1c1c" d="M 176.21875 160.191406 L 12.335938 160.191406 C 10.773438 160.191406 9.28125 159.515625 8.25 158.335938 C 7.21875 157.164062 6.742188 155.601562 6.945312 154.050781 L 22.21875 36.648438 C 23.140625 29.5625 29.691406 23.808594 36.839844 23.808594 L 36.867188 23.808594 L 195.582031 24.128906 C 199.128906 24.136719 202.28125 25.535156 204.457031 28.0625 C 206.65625 30.621094 207.578125 33.992188 207.050781 37.566406 L 190.824219 147.582031 C 189.800781 154.53125 183.246094 160.191406 176.21875 160.191406 Z M 36.839844 27.632812 C 31.636719 27.632812 26.683594 31.984375 26.015625 37.140625 L 10.742188 154.546875 C 10.660156 155.175781 10.949219 155.613281 11.125 155.8125 C 11.4375 156.167969 11.867188 156.363281 12.335938 156.363281 L 176.21875 156.363281 C 181.335938 156.363281 186.289062 152.085938 187.035156 147.019531 L 203.261719 37.007812 C 203.628906 34.550781 203.019531 32.261719 201.554688 30.558594 C 200.117188 28.886719 197.992188 27.960938 195.574219 27.953125 L 36.859375 27.632812 Z M 36.839844 27.632812 " fill-opacity="1" fill-rule="nonzero"/><g fill="#000000" fill-opacity="1"><g transform="translate(33.486437, 203.88639)"><g><path d="M 1.5 0 L 1.5 -1.5 L 2.984375 -1.5 L 2.984375 -11.96875 L 1.5 -11.96875 L 1.5 -13.453125 L 5.984375 -13.453125 L 5.984375 -11.96875 L 4.484375 -11.96875 L 4.484375 -1.5 L 5.984375 -1.5 L 5.984375 0 Z M 1.5 0 "/></g></g></g><g fill="#000000" fill-opacity="1"><g transform="translate(43.454693, 203.88639)"><g/></g></g><g fill="#000000" fill-opacity="1"><g transform="translate(53.422949, 203.88639)"><g><path d="M 0 0 L 0 -13.453125 L 1.25 -13.453125 L 3.734375 -8.46875 L 6.234375 -13.453125 L 7.484375 -13.453125 L 7.484375 0 L 5.984375 0 L 5.984375 -9.96875 L 4.234375 -6.484375 L 3.234375 -6.484375 L 1.5 -9.96875 L 1.5 0 Z M 0 0 "/></g></g></g><g fill="#000000" fill-opacity="1"><g transform="translate(63.391206, 203.88639)"><g><path d="M 1.5 0 L 1.5 -1.5 L 2.984375 -1.5 L 2.984375 -11.96875 L 1.5 -11.96875 L 1.5 -13.453125 L 5.984375 -13.453125 L 5.984375 -11.96875 L 4.484375 -11.96875 L 4.484375 -1.5 L 5.984375 -1.5 L 5.984375 0 Z M 1.5 0 "/></g></g></g><g fill="#000000" fill-opacity="1"><g transform="translate(73.359462, 203.88639)"><g><path d="M 0 0 L 0 -13.453125 L 7.484375 -13.453125 L 7.484375 -11.96875 L 1.5 -11.96875 L 1.5 -7.484375 L 5.984375 -7.484375 L 5.984375 -5.984375 L 1.5 -5.984375 L 1.5 -1.5 L 7.484375 -1.5 L 7.484375 0 Z M 0 0 "/></g></g></g><g fill="#000000" fill-opacity="1"><g transform="translate(83.327718, 203.88639)"><g><path d="M 1.5 0 L 1.5 -1.5 L 2.984375 -1.5 L 2.984375 -11.96875 L 1.5 -11.96875 L 1.5 -13.453125 L 5.984375 -13.453125 L 5.984375 -11.96875 L 4.484375 -11.96875 L 4.484375 -1.5 L 5.984375 -1.5 L 5.984375 0 Z M 1.5 0 "/></g></g></g><g fill="#000000" fill-opacity="1"><g transform="translate(93.295975, 203.88639)"><g/></g></g><g fill="#000000" fill-opacity="1"><g transform="translate(103.264231, 203.88639)"><g><path d="M 4.484375 -7.484375 L 5.984375 -8.96875 L 5.984375 -10.46875 L 4.484375 -11.96875 L 1.5 -11.96875 L 1.5 -7.484375 Z M 0 0 L 0 -13.453125 L 4.984375 -13.453125 L 7.484375 -10.96875 L 7.484375 -8.46875 L 4.984375 -5.984375 L 1.5 -5.984375 L 1.5 0 Z M 0 0 "/></g></g></g><g fill="#000000" fill-opacity="1"><g transform="translate(113.232487, 203.88639)"><g><path d="M 4.484375 -7.484375 L 5.984375 -8.96875 L 5.984375 -10.46875 L 4.484375 -11.96875 L 1.5 -11.96875 L 1.5 -7.484375 Z M 0 0 L 0 -13.453125 L 4.984375 -13.453125 L 7.484375 -10.96875 L 7.484375 -8.46875 L 4.984375 -5.984375 L 4.734375 -5.984375 L 7.484375 -0.5 L 6.484375 0 L 6.234375 0 L 3.234375 -5.984375 L 1.5 -5.984375 L 1.5 0 Z M 0 0 "/></g></g></g><g fill="#000000" fill-opacity="1"><g transform="translate(123.200744, 203.88639)"><g><path d="M 4.484375 -1.5 L 5.984375 -2.984375 L 5.984375 -10.46875 L 4.484375 -11.96875 L 2.984375 -11.96875 L 1.5 -10.46875 L 1.5 -2.984375 L 2.984375 -1.5 Z M 2.5 0 L 0 -2.5 L 0 -10.96875 L 2.5 -13.453125 L 4.984375 -13.453125 L 7.484375 -10.96875 L 7.484375 -2.5 L 4.984375 0 Z M 2.5 0 "/></g></g></g><g fill="#000000" fill-opacity="1"><g transform="translate(133.169, 203.88639)"><g><path d="M 2.5 0 L 0 -2.5 L 0 -10.96875 L 2.5 -13.453125 L 4.984375 -13.453125 L 7.484375 -10.96875 L 6.484375 -9.96875 L 4.484375 -11.96875 L 2.984375 -11.96875 L 1.5 -10.46875 L 1.5 -2.984375 L 2.984375 -1.5 L 3.984375 -1.5 L 5.984375 -3.484375 L 5.984375 -5.984375 L 2.984375 -5.984375 L 2.984375 -7.484375 L 7.484375 -7.484375 L 7.484375 0 L 5.984375 0 L 5.984375 -1.5 L 4.484375 0 Z M 2.5 0 "/></g></g></g><g fill="#000000" fill-opacity="1"><g transform="translate(143.137256, 203.88639)"><g><path d="M 0 0 L 0 -13.453125 L 7.484375 -13.453125 L 7.484375 -11.96875 L 1.5 -11.96875 L 1.5 -7.484375 L 5.984375 -7.484375 L 5.984375 -5.984375 L 1.5 -5.984375 L 1.5 -1.5 L 7.484375 -1.5 L 7.484375 0 Z M 0 0 "/></g></g></g><g fill="#000000" fill-opacity="1"><g transform="translate(153.105513, 203.88639)"><g><path d="M 2.984375 0 L 2.984375 -11.96875 L 0 -11.96875 L 0 -13.453125 L 7.484375 -13.453125 L 7.484375 -11.96875 L 4.484375 -11.96875 L 4.484375 0 Z M 2.984375 0 "/></g></g></g><g fill="#000000" fill-opacity="1"><g transform="translate(163.073769, 203.88639)"><g><path d="M 2.984375 0 L 2.984375 -11.96875 L 0 -11.96875 L 0 -13.453125 L 7.484375 -13.453125 L 7.484375 -11.96875 L 4.484375 -11.96875 L 4.484375 0 Z M 2.984375 0 "/></g></g></g><g fill="#000000" fill-opacity="1"><g transform="translate(173.042025, 203.88639)"><g><path d="M 1.5 0 L 1.5 -1.5 L 2.984375 -1.5 L 2.984375 -11.96875 L 1.5 -11.96875 L 1.5 -13.453125 L 5.984375 -13.453125 L 5.984375 -11.96875 L 4.484375 -11.96875 L 4.484375 -1.5 L 5.984375 -1.5 L 5.984375 0 Z M 1.5 0 "/></g></g></g></g></g></svg>