<svg xmlns="http://www.w3.org/2000/svg" xmlns:xlink="http://www.w3.org/1999/xlink" width="359" zoomAndPan="magnify" viewBox="0 0 269.25 269.249989" height="359" preserveAspectRatio="xMidYMid meet" version="1.0"><defs><filter x="0%" y="0%" width="100%" height="100%" id="7bad39d3de"><feColorMatrix values="0 0 0 0 1 0 0 0 0 1 0 0 0 0 1 0 0 0 1 0" color-interpolation-filters="sRGB"/></filter><g/><clipPath id="9c7cc1630f"><path d="M 0.191406 1 L 177 1 L 177 179 L 0.191406 179 Z M 0.191406 1 " clip-rule="nonzero"/></clipPath><mask id="305980b460"><g filter="url(#7bad39d3de)"><rect x="-105.235" width="387.72" fill="#000000" y="-85.234998" height="387.719984" fill-opacity="0.7"/></g></mask><clipPath id="24360c21a1"><path d="M 0.257812 0.925781 L 176.246094 0.925781 L 176.246094 176.914062 L 0.257812 176.914062 Z M 0.257812 0.925781 " clip-rule="nonzero"/></clipPath><clipPath id="07aae20ec3"><path d="M 88.25 0.925781 C 39.652344 0.925781 0.257812 40.320312 0.257812 88.917969 C 0.257812 137.515625 39.652344 176.914062 88.25 176.914062 C 136.847656 176.914062 176.246094 137.515625 176.246094 88.917969 C 176.246094 40.320312 136.847656 0.925781 88.25 0.925781 Z M 88.25 0.925781 " clip-rule="nonzero"/></clipPath><clipPath id="c00e6af1cf"><path d="M 0.257812 0.925781 L 176.246094 0.925781 L 176.246094 176.914062 L 0.257812 176.914062 Z M 0.257812 0.925781 " clip-rule="nonzero"/></clipPath><clipPath id="b8751f3c6a"><path d="M 88.25 0.925781 C 39.652344 0.925781 0.257812 40.320312 0.257812 88.917969 C 0.257812 137.515625 39.652344 176.914062 88.25 176.914062 C 136.847656 176.914062 176.246094 137.515625 176.246094 88.917969 C 176.246094 40.320312 136.847656 0.925781 88.25 0.925781 Z M 88.25 0.925781 " clip-rule="nonzero"/></clipPath><clipPath id="e8353dd823"><rect x="0" width="177" y="0" height="177"/></clipPath><clipPath id="d1042ff46a"><rect x="0" width="177" y="0" height="178"/></clipPath><clipPath id="5f2269f0c1"><path d="M 3.40625 0.851562 L 180.632812 0.851562 L 180.632812 178 L 3.40625 178 Z M 3.40625 0.851562 " clip-rule="nonzero"/></clipPath><clipPath id="d56243c7f0"><rect x="0" width="181" y="0" height="208"/></clipPath></defs><g transform="matrix(1, 0, 0, 1, 46, 26)"><g clip-path="url(#d56243c7f0)"><g clip-path="url(#9c7cc1630f)"><g mask="url(#305980b460)"><g transform="matrix(1, 0, 0, 1, 0, 1)"><g clip-path="url(#d1042ff46a)"><g clip-path="url(#24360c21a1)"><g clip-path="url(#07aae20ec3)"><g><g clip-path="url(#e8353dd823)"><g clip-path="url(#c00e6af1cf)"><g clip-path="url(#b8751f3c6a)"><path fill="#000000" d="M 0.257812 0.925781 L 176.246094 0.925781 L 176.246094 176.914062 L 0.257812 176.914062 Z M 0.257812 0.925781 " fill-opacity="1" fill-rule="nonzero"/></g></g></g></g></g></g></g></g></g></g><g clip-path="url(#5f2269f0c1)"><path fill="#ffadad" d="M 180.472656 89.382812 C 180.472656 90.832031 180.4375 92.28125 180.363281 93.726562 C 180.292969 95.175781 180.1875 96.621094 180.046875 98.0625 C 179.902344 99.503906 179.726562 100.941406 179.511719 102.375 C 179.300781 103.808594 179.054688 105.234375 178.769531 106.65625 C 178.488281 108.078125 178.171875 109.492188 177.820312 110.894531 C 177.464844 112.300781 177.078125 113.695312 176.660156 115.082031 C 176.238281 116.46875 175.785156 117.84375 175.296875 119.210938 C 174.808594 120.574219 174.285156 121.925781 173.730469 123.265625 C 173.179688 124.601562 172.589844 125.925781 171.972656 127.238281 C 171.351562 128.546875 170.699219 129.839844 170.019531 131.117188 C 169.335938 132.394531 168.621094 133.65625 167.875 134.898438 C 167.132812 136.140625 166.355469 137.367188 165.550781 138.570312 C 164.746094 139.773438 163.910156 140.960938 163.050781 142.125 C 162.1875 143.285156 161.292969 144.429688 160.375 145.550781 C 159.457031 146.667969 158.511719 147.765625 157.535156 148.839844 C 156.5625 149.914062 155.566406 150.960938 154.539062 151.988281 C 153.515625 153.011719 152.46875 154.011719 151.394531 154.984375 C 150.320312 155.957031 149.222656 156.902344 148.101562 157.820312 C 146.984375 158.742188 145.839844 159.632812 144.675781 160.496094 C 143.511719 161.359375 142.328125 162.191406 141.125 162.996094 C 139.917969 163.800781 138.695312 164.578125 137.453125 165.320312 C 136.210938 166.066406 134.949219 166.78125 133.671875 167.464844 C 132.394531 168.148438 131.101562 168.796875 129.789062 169.417969 C 128.480469 170.035156 127.15625 170.625 125.816406 171.179688 C 124.480469 171.734375 123.128906 172.253906 121.765625 172.742188 C 120.398438 173.230469 119.023438 173.683594 117.636719 174.105469 C 116.25 174.527344 114.855469 174.914062 113.449219 175.265625 C 112.042969 175.617188 110.632812 175.933594 109.210938 176.214844 C 107.789062 176.5 106.363281 176.746094 104.929688 176.960938 C 103.496094 177.171875 102.058594 177.347656 100.617188 177.492188 C 99.175781 177.632812 97.730469 177.738281 96.28125 177.8125 C 94.835938 177.882812 93.386719 177.917969 91.9375 177.917969 C 90.488281 177.917969 89.042969 177.882812 87.59375 177.8125 C 86.148438 177.738281 84.703125 177.632812 83.261719 177.492188 C 81.816406 177.347656 80.378906 177.171875 78.949219 176.960938 C 77.515625 176.746094 76.085938 176.5 74.664062 176.214844 C 73.246094 175.933594 71.832031 175.617188 70.425781 175.265625 C 69.019531 174.914062 67.625 174.527344 66.238281 174.105469 C 64.851562 173.683594 63.476562 173.230469 62.113281 172.742188 C 60.746094 172.253906 59.394531 171.734375 58.058594 171.179688 C 56.71875 170.625 55.394531 170.035156 54.085938 169.417969 C 52.773438 168.796875 51.480469 168.148438 50.203125 167.464844 C 48.925781 166.78125 47.664062 166.066406 46.421875 165.320312 C 45.179688 164.578125 43.957031 163.800781 42.75 162.996094 C 41.546875 162.191406 40.363281 161.359375 39.199219 160.496094 C 38.035156 159.632812 36.894531 158.742188 35.773438 157.820312 C 34.652344 156.902344 33.554688 155.957031 32.484375 154.984375 C 31.410156 154.011719 30.359375 153.011719 29.335938 151.988281 C 28.3125 150.960938 27.3125 149.914062 26.339844 148.839844 C 25.367188 147.765625 24.417969 146.667969 23.5 145.550781 C 22.582031 144.429688 21.691406 143.285156 20.828125 142.125 C 19.964844 140.960938 19.128906 139.773438 18.324219 138.570312 C 17.519531 137.367188 16.746094 136.140625 16 134.898438 C 15.253906 133.65625 14.542969 132.394531 13.859375 131.117188 C 13.175781 129.839844 12.523438 128.546875 11.90625 127.238281 C 11.285156 125.925781 10.699219 124.601562 10.144531 123.265625 C 9.589844 121.925781 9.066406 120.574219 8.578125 119.210938 C 8.089844 117.84375 7.636719 116.46875 7.214844 115.082031 C 6.796875 113.695312 6.410156 112.300781 6.058594 110.894531 C 5.707031 109.492188 5.386719 108.078125 5.105469 106.65625 C 4.824219 105.234375 4.574219 103.808594 4.363281 102.375 C 4.148438 100.941406 3.972656 99.503906 3.832031 98.0625 C 3.6875 96.621094 3.582031 95.175781 3.511719 93.726562 C 3.441406 92.28125 3.40625 90.832031 3.40625 89.382812 C 3.40625 87.933594 3.441406 86.488281 3.511719 85.039062 C 3.582031 83.59375 3.6875 82.148438 3.832031 80.707031 C 3.972656 79.265625 4.148438 77.828125 4.363281 76.394531 C 4.574219 74.960938 4.824219 73.53125 5.105469 72.113281 C 5.386719 70.691406 5.707031 69.277344 6.058594 67.871094 C 6.410156 66.464844 6.796875 65.070312 7.214844 63.683594 C 7.636719 62.296875 8.089844 60.921875 8.578125 59.558594 C 9.066406 58.195312 9.589844 56.84375 10.144531 55.503906 C 10.699219 54.164062 11.285156 52.839844 11.90625 51.53125 C 12.523438 50.222656 13.175781 48.925781 13.859375 47.648438 C 14.542969 46.371094 15.253906 45.109375 16 43.867188 C 16.746094 42.625 17.519531 41.402344 18.324219 40.195312 C 19.128906 38.992188 19.964844 37.808594 20.828125 36.644531 C 21.691406 35.480469 22.582031 34.339844 23.5 33.21875 C 24.417969 32.097656 25.367188 31 26.339844 29.929688 C 27.3125 28.855469 28.3125 27.804688 29.335938 26.78125 C 30.359375 25.757812 31.410156 24.757812 32.484375 23.785156 C 33.554688 22.8125 34.652344 21.867188 35.773438 20.945312 C 36.894531 20.027344 38.035156 19.136719 39.199219 18.273438 C 40.363281 17.410156 41.546875 16.574219 42.75 15.769531 C 43.957031 14.964844 45.179688 14.191406 46.421875 13.445312 C 47.664062 12.699219 48.925781 11.988281 50.203125 11.304688 C 51.480469 10.621094 52.773438 9.96875 54.085938 9.351562 C 55.394531 8.730469 56.71875 8.144531 58.058594 7.589844 C 59.394531 7.035156 60.746094 6.511719 62.113281 6.027344 C 63.476562 5.539062 64.851562 5.082031 66.238281 4.664062 C 67.625 4.242188 69.019531 3.855469 70.425781 3.503906 C 71.832031 3.152344 73.246094 2.835938 74.664062 2.550781 C 76.085938 2.269531 77.515625 2.019531 78.949219 1.808594 C 80.378906 1.597656 81.816406 1.417969 83.261719 1.277344 C 84.703125 1.132812 86.148438 1.027344 87.59375 0.957031 C 89.042969 0.886719 90.488281 0.851562 91.9375 0.851562 C 93.386719 0.851562 94.835938 0.886719 96.28125 0.957031 C 97.730469 1.027344 99.175781 1.132812 100.617188 1.277344 C 102.058594 1.417969 103.496094 1.597656 104.929688 1.808594 C 106.363281 2.019531 107.789062 2.269531 109.210938 2.550781 C 110.632812 2.835938 112.042969 3.152344 113.449219 3.503906 C 114.855469 3.855469 116.25 4.242188 117.636719 4.664062 C 119.023438 5.082031 120.398438 5.539062 121.765625 6.027344 C 123.128906 6.511719 124.480469 7.035156 125.816406 7.589844 C 127.15625 8.144531 128.480469 8.730469 129.789062 9.351562 C 131.101562 9.96875 132.394531 10.621094 133.671875 11.304688 C 134.949219 11.988281 136.210938 12.699219 137.453125 13.445312 C 138.695312 14.191406 139.917969 14.964844 141.125 15.769531 C 142.328125 16.574219 143.511719 17.410156 144.675781 18.273438 C 145.839844 19.136719 146.984375 20.027344 148.101562 20.945312 C 149.222656 21.867188 150.320312 22.8125 151.394531 23.785156 C 152.46875 24.757812 153.515625 25.757812 154.539062 26.78125 C 155.566406 27.804688 156.5625 28.855469 157.535156 29.929688 C 158.511719 31 159.457031 32.097656 160.375 33.21875 C 161.292969 34.339844 162.1875 35.480469 163.050781 36.644531 C 163.910156 37.808594 164.746094 38.992188 165.550781 40.195312 C 166.355469 41.402344 167.132812 42.625 167.875 43.867188 C 168.621094 45.109375 169.335938 46.371094 170.019531 47.648438 C 170.699219 48.925781 171.351562 50.222656 171.972656 51.53125 C 172.589844 52.839844 173.179688 54.164062 173.730469 55.503906 C 174.285156 56.84375 174.808594 58.195312 175.296875 59.558594 C 175.785156 60.921875 176.238281 62.296875 176.660156 63.683594 C 177.078125 65.070312 177.464844 66.464844 177.820312 67.871094 C 178.171875 69.277344 178.488281 70.691406 178.769531 72.113281 C 179.054688 73.53125 179.300781 74.960938 179.511719 76.394531 C 179.726562 77.828125 179.902344 79.265625 180.046875 80.707031 C 180.1875 82.148438 180.292969 83.59375 180.363281 85.039062 C 180.4375 86.488281 180.472656 87.933594 180.472656 89.382812 Z M 180.472656 89.382812 " fill-opacity="1" fill-rule="nonzero"/></g><path fill="#002c5c" d="M 114.585938 39.773438 C 110.09375 22.527344 58.863281 15.699219 52.046875 56.789062 C 45.226562 97.875 21.109375 132.144531 75.5 140.460938 C 129.890625 148.777344 141.535156 128.648438 138.207031 102.203125 C 134.878906 75.753906 128.726562 38.21875 114.585938 39.773438 Z M 114.585938 39.773438 " fill-opacity="1" fill-rule="nonzero"/><path fill="#0cc0df" d="M 155.5 151.066406 C 154.46875 152.128906 153.414062 153.160156 152.335938 154.167969 C 151.253906 155.175781 150.148438 156.152344 149.019531 157.105469 C 147.890625 158.058594 146.738281 158.980469 145.5625 159.875 C 144.386719 160.769531 143.1875 161.632812 141.96875 162.46875 C 140.75 163.300781 139.511719 164.105469 138.253906 164.878906 C 136.992188 165.648438 135.714844 166.390625 134.417969 167.097656 C 133.121094 167.804688 131.808594 168.480469 130.480469 169.125 C 129.148438 169.765625 127.804688 170.375 126.445312 170.953125 C 125.082031 171.527344 123.710938 172.066406 122.320312 172.574219 C 120.933594 173.082031 119.535156 173.554688 118.125 173.988281 C 116.710938 174.425781 115.292969 174.828125 113.859375 175.191406 C 112.429688 175.558594 110.988281 175.886719 109.542969 176.183594 C 108.09375 176.476562 106.640625 176.734375 105.179688 176.953125 C 103.71875 177.175781 102.253906 177.359375 100.785156 177.503906 C 99.316406 177.652344 97.84375 177.765625 96.367188 177.835938 C 94.890625 177.910156 93.414062 177.949219 91.9375 177.949219 C 90.460938 177.949219 88.984375 177.910156 87.507812 177.835938 C 86.035156 177.765625 84.5625 177.652344 83.09375 177.503906 C 81.621094 177.359375 80.15625 177.175781 78.695312 176.953125 C 77.234375 176.734375 75.78125 176.476562 74.335938 176.183594 C 72.886719 175.886719 71.445312 175.558594 70.015625 175.191406 C 68.585938 174.828125 67.164062 174.425781 65.753906 173.988281 C 64.339844 173.554688 62.941406 173.082031 61.554688 172.574219 C 60.167969 172.066406 58.792969 171.527344 57.433594 170.953125 C 56.070312 170.375 54.726562 169.765625 53.398438 169.125 C 52.066406 168.480469 50.753906 167.804688 49.457031 167.097656 C 48.160156 166.390625 46.882812 165.648438 45.625 164.878906 C 44.363281 164.105469 43.125 163.300781 41.90625 162.46875 C 40.6875 161.632812 39.492188 160.769531 38.316406 159.875 C 37.140625 158.980469 35.984375 158.058594 34.855469 157.105469 C 33.726562 156.152344 32.621094 155.175781 31.542969 154.167969 C 30.460938 153.160156 29.40625 152.128906 28.378906 151.066406 C 29.03125 149.515625 29.742188 147.992188 30.511719 146.492188 C 31.277344 144.992188 32.097656 143.523438 32.972656 142.082031 C 33.847656 140.644531 34.773438 139.238281 35.753906 137.867188 C 36.730469 136.496094 37.757812 135.164062 38.832031 133.867188 C 39.90625 132.570312 41.027344 131.316406 42.195312 130.101562 C 43.363281 128.886719 44.574219 127.71875 45.824219 126.59375 C 47.078125 125.46875 48.371094 124.390625 49.703125 123.359375 C 51.035156 122.328125 52.402344 121.347656 53.804688 120.417969 C 55.210938 119.484375 56.644531 118.609375 58.113281 117.78125 C 59.582031 116.957031 61.078125 116.1875 62.601562 115.46875 C 64.125 114.753906 65.675781 114.09375 67.246094 113.492188 C 68.820312 112.890625 70.414062 112.34375 72.023438 111.859375 C 73.636719 111.371094 75.265625 110.945312 76.910156 110.578125 C 78.554688 110.210938 80.207031 109.90625 81.875 109.660156 C 83.539062 109.414062 85.210938 109.230469 86.890625 109.109375 C 88.570312 108.984375 90.253906 108.921875 91.9375 108.921875 C 93.621094 108.921875 95.304688 108.984375 96.984375 109.109375 C 98.664062 109.230469 100.335938 109.414062 102.003906 109.660156 C 103.667969 109.90625 105.324219 110.210938 106.96875 110.578125 C 108.609375 110.945312 110.238281 111.371094 111.851562 111.859375 C 113.464844 112.34375 115.054688 112.890625 116.628906 113.492188 C 118.203125 114.09375 119.75 114.753906 121.273438 115.46875 C 122.796875 116.1875 124.292969 116.957031 125.761719 117.78125 C 127.230469 118.609375 128.667969 119.484375 130.070312 120.417969 C 131.472656 121.347656 132.839844 122.328125 134.171875 123.359375 C 135.503906 124.390625 136.796875 125.46875 138.050781 126.59375 C 139.300781 127.71875 140.511719 128.886719 141.679688 130.101562 C 142.847656 131.316406 143.96875 132.570312 145.042969 133.867188 C 146.117188 135.164062 147.144531 136.496094 148.125 137.867188 C 149.101562 139.238281 150.027344 140.644531 150.902344 142.082031 C 151.777344 143.523438 152.597656 144.992188 153.363281 146.492188 C 154.132812 147.992188 154.84375 149.515625 155.5 151.066406 Z M 155.5 151.066406 " fill-opacity="1" fill-rule="nonzero"/><path fill="#ffadad" d="M 91.902344 89.382812 C 92.722656 89.382812 93.53125 89.464844 94.335938 89.625 C 95.136719 89.78125 95.917969 90.019531 96.675781 90.332031 C 97.429688 90.644531 98.148438 91.03125 98.828125 91.484375 C 99.507812 91.941406 100.140625 92.457031 100.71875 93.035156 C 101.296875 93.613281 101.8125 94.242188 102.269531 94.925781 C 102.722656 95.605469 103.105469 96.324219 103.421875 97.078125 C 103.734375 97.835938 103.96875 98.613281 104.128906 99.417969 C 104.289062 100.222656 104.371094 101.03125 104.371094 101.851562 L 104.371094 112.84375 C 104.371094 113.664062 104.289062 114.472656 104.128906 115.277344 C 103.96875 116.082031 103.734375 116.859375 103.421875 117.617188 C 103.105469 118.371094 102.722656 119.089844 102.269531 119.769531 C 101.8125 120.453125 101.296875 121.082031 100.71875 121.660156 C 100.140625 122.238281 99.507812 122.753906 98.828125 123.210938 C 98.148438 123.664062 97.429688 124.050781 96.675781 124.363281 C 95.917969 124.675781 95.136719 124.914062 94.335938 125.070312 C 93.53125 125.230469 92.722656 125.3125 91.902344 125.3125 C 91.085938 125.3125 90.273438 125.230469 89.472656 125.070312 C 88.667969 124.914062 87.890625 124.675781 87.132812 124.363281 C 86.375 124.050781 85.65625 123.664062 84.976562 123.210938 C 84.296875 122.753906 83.667969 122.238281 83.089844 121.660156 C 82.507812 121.082031 81.992188 120.453125 81.539062 119.769531 C 81.082031 119.089844 80.699219 118.371094 80.386719 117.617188 C 80.074219 116.859375 79.835938 116.082031 79.675781 115.277344 C 79.515625 114.472656 79.4375 113.664062 79.4375 112.84375 L 79.4375 101.851562 C 79.4375 101.03125 79.515625 100.222656 79.675781 99.417969 C 79.835938 98.613281 80.074219 97.835938 80.386719 97.078125 C 80.699219 96.324219 81.082031 95.605469 81.539062 94.925781 C 81.992188 94.242188 82.507812 93.613281 83.089844 93.035156 C 83.667969 92.457031 84.296875 91.941406 84.976562 91.484375 C 85.65625 91.03125 86.375 90.644531 87.132812 90.332031 C 87.890625 90.019531 88.667969 89.78125 89.472656 89.625 C 90.273438 89.464844 91.085938 89.382812 91.902344 89.382812 Z M 91.902344 89.382812 " fill-opacity="1" fill-rule="nonzero"/><path fill="#ffadad" d="M 69.179688 81.535156 C 69.179688 82.050781 69.132812 82.5625 69.03125 83.070312 C 68.929688 83.574219 68.78125 84.066406 68.582031 84.542969 C 68.386719 85.019531 68.144531 85.472656 67.855469 85.902344 C 67.570312 86.332031 67.242188 86.730469 66.878906 87.09375 C 66.515625 87.457031 66.117188 87.785156 65.6875 88.070312 C 65.257812 88.359375 64.804688 88.601562 64.328125 88.796875 C 63.851562 88.996094 63.359375 89.144531 62.855469 89.246094 C 62.347656 89.347656 61.835938 89.394531 61.320312 89.394531 C 60.804688 89.394531 60.292969 89.347656 59.785156 89.246094 C 59.28125 89.144531 58.789062 88.996094 58.3125 88.796875 C 57.835938 88.601562 57.382812 88.359375 56.953125 88.070312 C 56.523438 87.785156 56.125 87.457031 55.761719 87.09375 C 55.394531 86.730469 55.070312 86.332031 54.785156 85.902344 C 54.496094 85.472656 54.253906 85.019531 54.058594 84.542969 C 53.859375 84.066406 53.710938 83.574219 53.609375 83.070312 C 53.507812 82.5625 53.457031 82.050781 53.457031 81.535156 C 53.457031 81.019531 53.507812 80.507812 53.609375 80 C 53.710938 79.496094 53.859375 79.003906 54.058594 78.527344 C 54.253906 78.050781 54.496094 77.597656 54.785156 77.167969 C 55.070312 76.738281 55.394531 76.339844 55.761719 75.976562 C 56.125 75.609375 56.523438 75.285156 56.953125 75 C 57.382812 74.710938 57.835938 74.46875 58.3125 74.273438 C 58.789062 74.074219 59.28125 73.925781 59.785156 73.824219 C 60.292969 73.722656 60.804688 73.671875 61.320312 73.671875 C 61.835938 73.671875 62.347656 73.722656 62.855469 73.824219 C 63.359375 73.925781 63.851562 74.074219 64.328125 74.273438 C 64.804688 74.46875 65.257812 74.710938 65.6875 75 C 66.117188 75.285156 66.515625 75.609375 66.878906 75.976562 C 67.242188 76.339844 67.570312 76.738281 67.855469 77.167969 C 68.144531 77.597656 68.386719 78.050781 68.582031 78.527344 C 68.78125 79.003906 68.929688 79.496094 69.03125 80 C 69.132812 80.507812 69.179688 81.019531 69.179688 81.535156 Z M 69.179688 81.535156 " fill-opacity="1" fill-rule="nonzero"/><path fill="#ffadad" d="M 129.617188 81.535156 C 129.617188 82.050781 129.566406 82.5625 129.464844 83.070312 C 129.363281 83.574219 129.214844 84.066406 129.015625 84.542969 C 128.820312 85.019531 128.578125 85.472656 128.292969 85.902344 C 128.003906 86.332031 127.679688 86.730469 127.3125 87.09375 C 126.949219 87.457031 126.550781 87.785156 126.121094 88.070312 C 125.691406 88.359375 125.238281 88.601562 124.761719 88.796875 C 124.285156 88.996094 123.792969 89.144531 123.289062 89.246094 C 122.78125 89.347656 122.269531 89.394531 121.753906 89.394531 C 121.238281 89.394531 120.726562 89.347656 120.222656 89.246094 C 119.714844 89.144531 119.222656 88.996094 118.746094 88.796875 C 118.269531 88.601562 117.816406 88.359375 117.386719 88.070312 C 116.957031 87.785156 116.5625 87.457031 116.195312 87.09375 C 115.832031 86.730469 115.503906 86.332031 115.21875 85.902344 C 114.929688 85.472656 114.6875 85.019531 114.492188 84.542969 C 114.292969 84.066406 114.144531 83.574219 114.042969 83.070312 C 113.945312 82.5625 113.894531 82.050781 113.894531 81.535156 C 113.894531 81.019531 113.945312 80.507812 114.042969 80 C 114.144531 79.496094 114.292969 79.003906 114.492188 78.527344 C 114.6875 78.050781 114.929688 77.597656 115.21875 77.167969 C 115.503906 76.738281 115.832031 76.339844 116.195312 75.976562 C 116.5625 75.609375 116.957031 75.285156 117.386719 75 C 117.816406 74.710938 118.269531 74.46875 118.746094 74.273438 C 119.222656 74.074219 119.714844 73.925781 120.222656 73.824219 C 120.726562 73.722656 121.238281 73.671875 121.753906 73.671875 C 122.269531 73.671875 122.78125 73.722656 123.289062 73.824219 C 123.792969 73.925781 124.285156 74.074219 124.761719 74.273438 C 125.238281 74.46875 125.691406 74.710938 126.121094 75 C 126.550781 75.285156 126.949219 75.609375 127.3125 75.976562 C 127.679688 76.339844 128.003906 76.738281 128.292969 77.167969 C 128.578125 77.597656 128.820312 78.050781 129.015625 78.527344 C 129.214844 79.003906 129.363281 79.496094 129.464844 80 C 129.566406 80.507812 129.617188 81.019531 129.617188 81.535156 Z M 129.617188 81.535156 " fill-opacity="1" fill-rule="nonzero"/><path fill="#ffd6d6" d="M 91.9375 39.773438 C 92.941406 39.773438 93.941406 39.820312 94.9375 39.917969 C 95.9375 40.019531 96.925781 40.164062 97.910156 40.359375 C 98.894531 40.554688 99.867188 40.800781 100.824219 41.089844 C 101.785156 41.382812 102.726562 41.71875 103.65625 42.101562 C 104.582031 42.488281 105.484375 42.914062 106.371094 43.386719 C 107.253906 43.859375 108.113281 44.375 108.949219 44.933594 C 109.78125 45.488281 110.585938 46.085938 111.359375 46.722656 C 112.136719 47.359375 112.878906 48.03125 113.585938 48.738281 C 114.296875 49.449219 114.96875 50.191406 115.605469 50.964844 C 116.242188 51.742188 116.839844 52.546875 117.394531 53.378906 C 117.953125 54.214844 118.46875 55.074219 118.941406 55.957031 C 119.414062 56.839844 119.839844 57.746094 120.222656 58.671875 C 120.609375 59.597656 120.945312 60.542969 121.238281 61.503906 C 121.527344 62.460938 121.769531 63.433594 121.964844 64.417969 C 122.164062 65.398438 122.308594 66.390625 122.40625 67.390625 C 122.507812 68.386719 122.554688 69.386719 122.554688 70.390625 L 122.554688 78.304688 C 122.554688 79.308594 122.507812 80.308594 122.40625 81.304688 C 122.308594 82.304688 122.164062 83.292969 121.964844 84.277344 C 121.769531 85.261719 121.527344 86.234375 121.238281 87.191406 C 120.945312 88.152344 120.609375 89.09375 120.222656 90.019531 C 119.839844 90.949219 119.414062 91.851562 118.941406 92.738281 C 118.46875 93.621094 117.953125 94.480469 117.394531 95.316406 C 116.839844 96.148438 116.242188 96.953125 115.605469 97.726562 C 114.96875 98.503906 114.296875 99.246094 113.585938 99.953125 C 112.878906 100.664062 112.136719 101.335938 111.359375 101.972656 C 110.585938 102.609375 109.78125 103.207031 108.949219 103.761719 C 108.113281 104.320312 107.253906 104.835938 106.371094 105.308594 C 105.484375 105.78125 104.582031 106.207031 103.65625 106.589844 C 102.726562 106.976562 101.785156 107.3125 100.824219 107.605469 C 99.867188 107.894531 98.894531 108.136719 97.910156 108.335938 C 96.925781 108.53125 95.9375 108.675781 94.9375 108.773438 C 93.941406 108.875 92.941406 108.921875 91.9375 108.921875 C 90.933594 108.921875 89.933594 108.875 88.9375 108.773438 C 87.9375 108.675781 86.949219 108.53125 85.964844 108.335938 C 84.980469 108.136719 84.007812 107.894531 83.050781 107.605469 C 82.089844 107.3125 81.148438 106.976562 80.222656 106.589844 C 79.292969 106.207031 78.390625 105.78125 77.503906 105.308594 C 76.621094 104.835938 75.761719 104.320312 74.925781 103.761719 C 74.09375 103.207031 73.289062 102.609375 72.515625 101.972656 C 71.738281 101.335938 70.996094 100.664062 70.289062 99.953125 C 69.578125 99.246094 68.90625 98.503906 68.269531 97.726562 C 67.632812 96.953125 67.039062 96.148438 66.480469 95.316406 C 65.921875 94.480469 65.40625 93.621094 64.933594 92.738281 C 64.460938 91.851562 64.035156 90.949219 63.652344 90.019531 C 63.265625 89.09375 62.929688 88.152344 62.636719 87.191406 C 62.347656 86.234375 62.105469 85.261719 61.910156 84.277344 C 61.710938 83.292969 61.566406 82.304688 61.46875 81.304688 C 61.371094 80.308594 61.320312 79.308594 61.320312 78.304688 L 61.320312 70.390625 C 61.320312 69.386719 61.371094 68.386719 61.46875 67.390625 C 61.566406 66.390625 61.710938 65.398438 61.910156 64.417969 C 62.105469 63.433594 62.347656 62.460938 62.636719 61.503906 C 62.929688 60.542969 63.265625 59.597656 63.652344 58.671875 C 64.035156 57.746094 64.460938 56.839844 64.933594 55.957031 C 65.40625 55.074219 65.921875 54.214844 66.480469 53.378906 C 67.039062 52.546875 67.632812 51.742188 68.269531 50.964844 C 68.90625 50.191406 69.578125 49.449219 70.289062 48.738281 C 70.996094 48.03125 71.738281 47.359375 72.515625 46.722656 C 73.289062 46.085938 74.09375 45.488281 74.925781 44.933594 C 75.761719 44.375 76.621094 43.859375 77.503906 43.386719 C 78.390625 42.914062 79.292969 42.488281 80.222656 42.101562 C 81.148438 41.71875 82.089844 41.382812 83.050781 41.089844 C 84.007812 40.800781 84.980469 40.554688 85.964844 40.359375 C 86.949219 40.164062 87.9375 40.019531 88.9375 39.917969 C 89.933594 39.820312 90.933594 39.773438 91.9375 39.773438 Z M 91.9375 39.773438 " fill-opacity="1" fill-rule="nonzero"/><path fill="#002c5c" d="M 61.320312 73.671875 C 102.441406 74.09375 113.894531 50.804688 113.894531 50.804688 C 113.894531 50.804688 115.835938 69.4375 122.554688 74.347656 C 126.070312 54.796875 115.75 37 88.972656 35.667969 C 62.191406 34.339844 54.960938 64.9375 61.320312 73.671875 Z M 61.320312 73.671875 " fill-opacity="1" fill-rule="nonzero"/><g fill="#000000" fill-opacity="1"><g transform="translate(18.46659, 203.88639)"><g><path d="M 1.5 0 L 1.5 -1.5 L 2.984375 -1.5 L 2.984375 -11.96875 L 1.5 -11.96875 L 1.5 -13.453125 L 5.984375 -13.453125 L 5.984375 -11.96875 L 4.484375 -11.96875 L 4.484375 -1.5 L 5.984375 -1.5 L 5.984375 0 Z M 1.5 0 "/></g></g></g><g fill="#000000" fill-opacity="1"><g transform="translate(28.434846, 203.88639)"><g><path d="M 0 0 L 0 -13.453125 L 1.5 -13.453125 L 1.5 -1.5 L 7.484375 -1.5 L 7.484375 0 Z M 0 0 "/></g></g></g><g fill="#000000" fill-opacity="1"><g transform="translate(38.403102, 203.88639)"><g/></g></g><g fill="#000000" fill-opacity="1"><g transform="translate(48.371359, 203.88639)"><g><path d="M 0 0 L 0 -13.453125 L 1.25 -13.453125 L 3.734375 -8.46875 L 6.234375 -13.453125 L 7.484375 -13.453125 L 7.484375 0 L 5.984375 0 L 5.984375 -9.96875 L 4.234375 -6.484375 L 3.234375 -6.484375 L 1.5 -9.96875 L 1.5 0 Z M 0 0 "/></g></g></g><g fill="#000000" fill-opacity="1"><g transform="translate(58.339615, 203.88639)"><g><path d="M 1.5 0 L 1.5 -1.5 L 2.984375 -1.5 L 2.984375 -11.96875 L 1.5 -11.96875 L 1.5 -13.453125 L 5.984375 -13.453125 L 5.984375 -11.96875 L 4.484375 -11.96875 L 4.484375 -1.5 L 5.984375 -1.5 L 5.984375 0 Z M 1.5 0 "/></g></g></g><g fill="#000000" fill-opacity="1"><g transform="translate(68.307871, 203.88639)"><g><path d="M 4.484375 -1.5 L 5.984375 -2.984375 L 5.984375 -10.46875 L 4.484375 -11.96875 L 2.984375 -11.96875 L 1.5 -10.46875 L 1.5 -2.984375 L 2.984375 -1.5 Z M 2.5 0 L 0 -2.5 L 0 -10.96875 L 2.5 -13.453125 L 4.984375 -13.453125 L 7.484375 -10.96875 L 7.484375 -2.5 L 4.984375 0 Z M 2.5 0 "/></g></g></g><g fill="#000000" fill-opacity="1"><g transform="translate(78.276128, 203.88639)"><g/></g></g><g fill="#000000" fill-opacity="1"><g transform="translate(88.244384, 203.88639)"><g><path d="M 4.484375 -7.484375 L 5.984375 -8.96875 L 5.984375 -10.46875 L 4.484375 -11.96875 L 1.5 -11.96875 L 1.5 -7.484375 Z M 0 0 L 0 -13.453125 L 4.984375 -13.453125 L 7.484375 -10.96875 L 7.484375 -8.46875 L 4.984375 -5.984375 L 1.5 -5.984375 L 1.5 0 Z M 0 0 "/></g></g></g><g fill="#000000" fill-opacity="1"><g transform="translate(98.212641, 203.88639)"><g><path d="M 4.484375 -7.484375 L 5.984375 -8.96875 L 5.984375 -10.46875 L 4.484375 -11.96875 L 1.5 -11.96875 L 1.5 -7.484375 Z M 0 0 L 0 -13.453125 L 4.984375 -13.453125 L 7.484375 -10.96875 L 7.484375 -8.46875 L 4.984375 -5.984375 L 4.734375 -5.984375 L 7.484375 -0.5 L 6.484375 0 L 6.234375 0 L 3.234375 -5.984375 L 1.5 -5.984375 L 1.5 0 Z M 0 0 "/></g></g></g><g fill="#000000" fill-opacity="1"><g transform="translate(108.180897, 203.88639)"><g><path d="M 4.484375 -1.5 L 5.984375 -2.984375 L 5.984375 -10.46875 L 4.484375 -11.96875 L 2.984375 -11.96875 L 1.5 -10.46875 L 1.5 -2.984375 L 2.984375 -1.5 Z M 2.5 0 L 0 -2.5 L 0 -10.96875 L 2.5 -13.453125 L 4.984375 -13.453125 L 7.484375 -10.96875 L 7.484375 -2.5 L 4.984375 0 Z M 2.5 0 "/></g></g></g><g fill="#000000" fill-opacity="1"><g transform="translate(118.149153, 203.88639)"><g><path d="M 0 0 L 0 -13.453125 L 7.484375 -13.453125 L 7.484375 -11.96875 L 1.5 -11.96875 L 1.5 -7.484375 L 5.984375 -7.484375 L 5.984375 -5.984375 L 1.5 -5.984375 L 1.5 0 Z M 0 0 "/></g></g></g><g fill="#000000" fill-opacity="1"><g transform="translate(128.11741, 203.88639)"><g><path d="M 1.5 0 L 1.5 -1.5 L 2.984375 -1.5 L 2.984375 -11.96875 L 1.5 -11.96875 L 1.5 -13.453125 L 5.984375 -13.453125 L 5.984375 -11.96875 L 4.484375 -11.96875 L 4.484375 -1.5 L 5.984375 -1.5 L 5.984375 0 Z M 1.5 0 "/></g></g></g><g fill="#000000" fill-opacity="1"><g transform="translate(138.085666, 203.88639)"><g><path d="M 0 0 L 0 -13.453125 L 1.5 -13.453125 L 1.5 -1.5 L 7.484375 -1.5 L 7.484375 0 Z M 0 0 "/></g></g></g><g fill="#000000" fill-opacity="1"><g transform="translate(148.053922, 203.88639)"><g><path d="M 4.484375 -1.5 L 5.984375 -2.984375 L 5.984375 -10.46875 L 4.484375 -11.96875 L 2.984375 -11.96875 L 1.5 -10.46875 L 1.5 -2.984375 L 2.984375 -1.5 Z M 2.5 0 L 0 -2.5 L 0 -10.96875 L 2.5 -13.453125 L 4.984375 -13.453125 L 7.484375 -10.96875 L 7.484375 -2.5 L 4.984375 0 Z M 2.5 0 "/></g></g></g></g></g></svg>