<svg xmlns="http://www.w3.org/2000/svg" xmlns:xlink="http://www.w3.org/1999/xlink" width="359" zoomAndPan="magnify" viewBox="0 0 269.25 269.249989" height="359" preserveAspectRatio="xMidYMid meet" version="1.0"><defs><filter x="0%" y="0%" width="100%" height="100%" id="3cd0a6a669"><feColorMatrix values="0 0 0 0 1 0 0 0 0 1 0 0 0 0 1 0 0 0 1 0" color-interpolation-filters="sRGB"/></filter><g/><clipPath id="3355d09696"><path d="M 0.300781 0.804688 L 180.761719 0.804688 L 180.761719 183 L 0.300781 183 Z M 0.300781 0.804688 " clip-rule="nonzero"/></clipPath><mask id="9d082bc7be"><g filter="url(#3cd0a6a669)"><rect x="-108.235" width="387.72" fill="#000000" y="-85.234998" height="387.719984" fill-opacity="0.7"/></g></mask><clipPath id="54a9fce90b"><path d="M 0.40625 0.851562 L 180.691406 0.851562 L 180.691406 182.546875 L 0.40625 182.546875 Z M 0.40625 0.851562 " clip-rule="nonzero"/></clipPath><clipPath id="6ea56a25bf"><path d="M 90.546875 0.851562 C 40.761719 0.851562 0.40625 41.476562 0.40625 91.59375 C 0.40625 141.707031 40.761719 182.335938 90.546875 182.335938 C 140.332031 182.335938 180.691406 141.707031 180.691406 91.59375 C 180.691406 41.476562 140.332031 0.851562 90.546875 0.851562 Z M 90.546875 0.851562 " clip-rule="nonzero"/></clipPath><clipPath id="7e095cf0f1"><path d="M 0.40625 0.851562 L 180.691406 0.851562 L 180.691406 182.460938 L 0.40625 182.460938 Z M 0.40625 0.851562 " clip-rule="nonzero"/></clipPath><clipPath id="9d433433d0"><path d="M 90.546875 0.851562 C 40.761719 0.851562 0.40625 41.476562 0.40625 91.59375 C 0.40625 141.707031 40.761719 182.335938 90.546875 182.335938 C 140.332031 182.335938 180.691406 141.707031 180.691406 91.59375 C 180.691406 41.476562 140.332031 0.851562 90.546875 0.851562 Z M 90.546875 0.851562 " clip-rule="nonzero"/></clipPath><clipPath id="2f37fa5657"><rect x="0" width="181" y="0" height="183"/></clipPath><clipPath id="8533ef88a6"><rect x="0" width="181" y="0" height="183"/></clipPath><clipPath id="4cba132f59"><path d="M 0.40625 0.851562 L 177.632812 0.851562 L 177.632812 178 L 0.40625 178 Z M 0.40625 0.851562 " clip-rule="nonzero"/></clipPath><clipPath id="994699daa1"><rect x="0" width="181" y="0" height="208"/></clipPath></defs><g transform="matrix(1, 0, 0, 1, 49, 26)"><g clip-path="url(#994699daa1)"><g clip-path="url(#3355d09696)"><g mask="url(#9d082bc7be)"><g transform="matrix(1, 0, 0, 1, -0.000000000000007105, 0)"><g clip-path="url(#8533ef88a6)"><g clip-path="url(#54a9fce90b)"><g clip-path="url(#6ea56a25bf)"><g transform="matrix(1, 0, 0, 1, -0.000000000000007105, 0)"><g clip-path="url(#2f37fa5657)"><g clip-path="url(#7e095cf0f1)"><g clip-path="url(#9d433433d0)"><path fill="#000000" d="M 0.40625 0.851562 L 180.691406 0.851562 L 180.691406 182.546875 L 0.40625 182.546875 Z M 0.40625 0.851562 " fill-opacity="1" fill-rule="nonzero"/></g></g></g></g></g></g></g></g></g></g><g clip-path="url(#4cba132f59)"><path fill="#ffadad" d="M 177.472656 89.382812 C 177.472656 90.832031 177.4375 92.28125 177.363281 93.726562 C 177.292969 95.175781 177.1875 96.621094 177.046875 98.0625 C 176.902344 99.503906 176.726562 100.941406 176.511719 102.375 C 176.300781 103.808594 176.054688 105.234375 175.769531 106.65625 C 175.488281 108.078125 175.171875 109.492188 174.820312 110.894531 C 174.464844 112.300781 174.078125 113.695312 173.660156 115.082031 C 173.238281 116.46875 172.785156 117.84375 172.296875 119.210938 C 171.808594 120.574219 171.285156 121.925781 170.730469 123.265625 C 170.179688 124.601562 169.589844 125.925781 168.972656 127.238281 C 168.351562 128.546875 167.699219 129.839844 167.019531 131.117188 C 166.335938 132.394531 165.621094 133.65625 164.875 134.898438 C 164.132812 136.140625 163.355469 137.367188 162.550781 138.570312 C 161.746094 139.773438 160.910156 140.960938 160.050781 142.125 C 159.1875 143.285156 158.292969 144.429688 157.375 145.550781 C 156.457031 146.667969 155.511719 147.765625 154.535156 148.839844 C 153.5625 149.914062 152.566406 150.960938 151.539062 151.988281 C 150.515625 153.011719 149.46875 154.011719 148.394531 154.984375 C 147.320312 155.957031 146.222656 156.902344 145.101562 157.820312 C 143.984375 158.742188 142.839844 159.632812 141.675781 160.496094 C 140.511719 161.359375 139.328125 162.191406 138.125 162.996094 C 136.917969 163.800781 135.695312 164.578125 134.453125 165.320312 C 133.210938 166.066406 131.949219 166.78125 130.671875 167.464844 C 129.394531 168.148438 128.101562 168.796875 126.789062 169.417969 C 125.480469 170.035156 124.15625 170.625 122.816406 171.179688 C 121.480469 171.734375 120.128906 172.253906 118.765625 172.742188 C 117.398438 173.230469 116.023438 173.683594 114.636719 174.105469 C 113.25 174.527344 111.855469 174.914062 110.449219 175.265625 C 109.042969 175.617188 107.632812 175.933594 106.210938 176.214844 C 104.789062 176.5 103.363281 176.746094 101.929688 176.960938 C 100.496094 177.171875 99.058594 177.347656 97.617188 177.492188 C 96.175781 177.632812 94.730469 177.738281 93.28125 177.8125 C 91.835938 177.882812 90.386719 177.917969 88.9375 177.917969 C 87.488281 177.917969 86.042969 177.882812 84.59375 177.8125 C 83.148438 177.738281 81.703125 177.632812 80.261719 177.492188 C 78.816406 177.347656 77.378906 177.171875 75.949219 176.960938 C 74.515625 176.746094 73.085938 176.5 71.664062 176.214844 C 70.246094 175.933594 68.832031 175.617188 67.425781 175.265625 C 66.019531 174.914062 64.625 174.527344 63.238281 174.105469 C 61.851562 173.683594 60.476562 173.230469 59.113281 172.742188 C 57.746094 172.253906 56.394531 171.734375 55.058594 171.179688 C 53.71875 170.625 52.394531 170.035156 51.085938 169.417969 C 49.773438 168.796875 48.480469 168.148438 47.203125 167.464844 C 45.925781 166.78125 44.664062 166.066406 43.421875 165.320312 C 42.179688 164.578125 40.957031 163.800781 39.75 162.996094 C 38.546875 162.191406 37.363281 161.359375 36.199219 160.496094 C 35.035156 159.632812 33.894531 158.742188 32.773438 157.820312 C 31.652344 156.902344 30.554688 155.957031 29.484375 154.984375 C 28.410156 154.011719 27.359375 153.011719 26.335938 151.988281 C 25.3125 150.960938 24.3125 149.914062 23.339844 148.839844 C 22.367188 147.765625 21.417969 146.667969 20.5 145.550781 C 19.582031 144.429688 18.691406 143.285156 17.828125 142.125 C 16.964844 140.960938 16.128906 139.773438 15.324219 138.570312 C 14.519531 137.367188 13.746094 136.140625 13 134.898438 C 12.253906 133.65625 11.542969 132.394531 10.859375 131.117188 C 10.175781 129.839844 9.523438 128.546875 8.90625 127.238281 C 8.285156 125.925781 7.699219 124.601562 7.144531 123.265625 C 6.589844 121.925781 6.066406 120.574219 5.578125 119.210938 C 5.089844 117.84375 4.636719 116.46875 4.214844 115.082031 C 3.796875 113.695312 3.410156 112.300781 3.058594 110.894531 C 2.707031 109.492188 2.386719 108.078125 2.105469 106.65625 C 1.824219 105.234375 1.574219 103.808594 1.363281 102.375 C 1.148438 100.941406 0.972656 99.503906 0.832031 98.0625 C 0.6875 96.621094 0.582031 95.175781 0.511719 93.726562 C 0.441406 92.28125 0.40625 90.832031 0.40625 89.382812 C 0.40625 87.933594 0.441406 86.488281 0.511719 85.039062 C 0.582031 83.59375 0.6875 82.148438 0.832031 80.707031 C 0.972656 79.265625 1.148438 77.828125 1.363281 76.394531 C 1.574219 74.960938 1.824219 73.53125 2.105469 72.113281 C 2.386719 70.691406 2.707031 69.277344 3.058594 67.871094 C 3.410156 66.464844 3.796875 65.070312 4.214844 63.683594 C 4.636719 62.296875 5.089844 60.921875 5.578125 59.558594 C 6.066406 58.195312 6.589844 56.84375 7.144531 55.503906 C 7.699219 54.164062 8.285156 52.839844 8.90625 51.53125 C 9.523438 50.222656 10.175781 48.925781 10.859375 47.648438 C 11.542969 46.371094 12.253906 45.109375 13 43.867188 C 13.746094 42.625 14.519531 41.402344 15.324219 40.195312 C 16.128906 38.992188 16.964844 37.808594 17.828125 36.644531 C 18.691406 35.480469 19.582031 34.339844 20.5 33.21875 C 21.417969 32.097656 22.367188 31 23.339844 29.929688 C 24.3125 28.855469 25.3125 27.804688 26.335938 26.78125 C 27.359375 25.757812 28.410156 24.757812 29.484375 23.785156 C 30.554688 22.8125 31.652344 21.867188 32.773438 20.945312 C 33.894531 20.027344 35.035156 19.136719 36.199219 18.273438 C 37.363281 17.410156 38.546875 16.574219 39.75 15.769531 C 40.957031 14.964844 42.179688 14.191406 43.421875 13.445312 C 44.664062 12.699219 45.925781 11.988281 47.203125 11.304688 C 48.480469 10.621094 49.773438 9.96875 51.085938 9.351562 C 52.394531 8.730469 53.71875 8.144531 55.058594 7.589844 C 56.394531 7.035156 57.746094 6.511719 59.113281 6.027344 C 60.476562 5.539062 61.851562 5.082031 63.238281 4.664062 C 64.625 4.242188 66.019531 3.855469 67.425781 3.503906 C 68.832031 3.152344 70.246094 2.835938 71.664062 2.550781 C 73.085938 2.269531 74.515625 2.019531 75.949219 1.808594 C 77.378906 1.597656 78.816406 1.417969 80.261719 1.277344 C 81.703125 1.132812 83.148438 1.027344 84.59375 0.957031 C 86.042969 0.886719 87.488281 0.851562 88.9375 0.851562 C 90.386719 0.851562 91.835938 0.886719 93.28125 0.957031 C 94.730469 1.027344 96.175781 1.132812 97.617188 1.277344 C 99.058594 1.417969 100.496094 1.597656 101.929688 1.808594 C 103.363281 2.019531 104.789062 2.269531 106.210938 2.550781 C 107.632812 2.835938 109.042969 3.152344 110.449219 3.503906 C 111.855469 3.855469 113.25 4.242188 114.636719 4.664062 C 116.023438 5.082031 117.398438 5.539062 118.765625 6.027344 C 120.128906 6.511719 121.480469 7.035156 122.816406 7.589844 C 124.15625 8.144531 125.480469 8.730469 126.789062 9.351562 C 128.101562 9.96875 129.394531 10.621094 130.671875 11.304688 C 131.949219 11.988281 133.210938 12.699219 134.453125 13.445312 C 135.695312 14.191406 136.917969 14.964844 138.125 15.769531 C 139.328125 16.574219 140.511719 17.410156 141.675781 18.273438 C 142.839844 19.136719 143.984375 20.027344 145.101562 20.945312 C 146.222656 21.867188 147.320312 22.8125 148.394531 23.785156 C 149.46875 24.757812 150.515625 25.757812 151.539062 26.78125 C 152.566406 27.804688 153.5625 28.855469 154.535156 29.929688 C 155.511719 31 156.457031 32.097656 157.375 33.21875 C 158.292969 34.339844 159.1875 35.480469 160.050781 36.644531 C 160.910156 37.808594 161.746094 38.992188 162.550781 40.195312 C 163.355469 41.402344 164.132812 42.625 164.875 43.867188 C 165.621094 45.109375 166.335938 46.371094 167.019531 47.648438 C 167.699219 48.925781 168.351562 50.222656 168.972656 51.53125 C 169.589844 52.839844 170.179688 54.164062 170.730469 55.503906 C 171.285156 56.84375 171.808594 58.195312 172.296875 59.558594 C 172.785156 60.921875 173.238281 62.296875 173.660156 63.683594 C 174.078125 65.070312 174.464844 66.464844 174.820312 67.871094 C 175.171875 69.277344 175.488281 70.691406 175.769531 72.113281 C 176.054688 73.53125 176.300781 74.960938 176.511719 76.394531 C 176.726562 77.828125 176.902344 79.265625 177.046875 80.707031 C 177.1875 82.148438 177.292969 83.59375 177.363281 85.039062 C 177.4375 86.488281 177.472656 87.933594 177.472656 89.382812 Z M 177.472656 89.382812 " fill-opacity="1" fill-rule="nonzero"/></g><path fill="#002c5c" d="M 111.585938 39.773438 C 107.09375 22.527344 55.863281 15.699219 49.046875 56.789062 C 42.226562 97.875 18.109375 132.144531 72.5 140.460938 C 126.890625 148.777344 138.535156 128.648438 135.207031 102.203125 C 131.878906 75.753906 125.726562 38.21875 111.585938 39.773438 Z M 111.585938 39.773438 " fill-opacity="1" fill-rule="nonzero"/><path fill="#0cc0df" d="M 152.5 151.066406 C 151.46875 152.128906 150.414062 153.160156 149.335938 154.167969 C 148.253906 155.175781 147.148438 156.152344 146.019531 157.105469 C 144.890625 158.058594 143.738281 158.980469 142.5625 159.875 C 141.386719 160.769531 140.1875 161.632812 138.96875 162.46875 C 137.75 163.300781 136.511719 164.105469 135.253906 164.878906 C 133.992188 165.648438 132.714844 166.390625 131.417969 167.097656 C 130.121094 167.804688 128.808594 168.480469 127.480469 169.125 C 126.148438 169.765625 124.804688 170.375 123.445312 170.953125 C 122.082031 171.527344 120.710938 172.066406 119.320312 172.574219 C 117.933594 173.082031 116.535156 173.554688 115.125 173.988281 C 113.710938 174.425781 112.292969 174.828125 110.859375 175.191406 C 109.429688 175.558594 107.988281 175.886719 106.542969 176.183594 C 105.09375 176.476562 103.640625 176.734375 102.179688 176.953125 C 100.71875 177.175781 99.253906 177.359375 97.785156 177.503906 C 96.316406 177.652344 94.84375 177.765625 93.367188 177.835938 C 91.890625 177.910156 90.414062 177.949219 88.9375 177.949219 C 87.460938 177.949219 85.984375 177.910156 84.507812 177.835938 C 83.035156 177.765625 81.5625 177.652344 80.09375 177.503906 C 78.621094 177.359375 77.15625 177.175781 75.695312 176.953125 C 74.234375 176.734375 72.78125 176.476562 71.335938 176.183594 C 69.886719 175.886719 68.445312 175.558594 67.015625 175.191406 C 65.585938 174.828125 64.164062 174.425781 62.753906 173.988281 C 61.339844 173.554688 59.941406 173.082031 58.554688 172.574219 C 57.167969 172.066406 55.792969 171.527344 54.433594 170.953125 C 53.070312 170.375 51.726562 169.765625 50.398438 169.125 C 49.066406 168.480469 47.753906 167.804688 46.457031 167.097656 C 45.160156 166.390625 43.882812 165.648438 42.625 164.878906 C 41.363281 164.105469 40.125 163.300781 38.90625 162.46875 C 37.6875 161.632812 36.492188 160.769531 35.316406 159.875 C 34.140625 158.980469 32.984375 158.058594 31.855469 157.105469 C 30.726562 156.152344 29.621094 155.175781 28.542969 154.167969 C 27.460938 153.160156 26.40625 152.128906 25.378906 151.066406 C 26.03125 149.515625 26.742188 147.992188 27.511719 146.492188 C 28.277344 144.992188 29.097656 143.523438 29.972656 142.082031 C 30.847656 140.644531 31.773438 139.238281 32.753906 137.867188 C 33.730469 136.496094 34.757812 135.164062 35.832031 133.867188 C 36.90625 132.570312 38.027344 131.316406 39.195312 130.101562 C 40.363281 128.886719 41.574219 127.71875 42.824219 126.59375 C 44.078125 125.46875 45.371094 124.390625 46.703125 123.359375 C 48.035156 122.328125 49.402344 121.347656 50.804688 120.417969 C 52.210938 119.484375 53.644531 118.609375 55.113281 117.78125 C 56.582031 116.957031 58.078125 116.1875 59.601562 115.46875 C 61.125 114.753906 62.675781 114.09375 64.246094 113.492188 C 65.820312 112.890625 67.414062 112.34375 69.023438 111.859375 C 70.636719 111.371094 72.265625 110.945312 73.910156 110.578125 C 75.554688 110.210938 77.207031 109.90625 78.875 109.660156 C 80.539062 109.414062 82.210938 109.230469 83.890625 109.109375 C 85.570312 108.984375 87.253906 108.921875 88.9375 108.921875 C 90.621094 108.921875 92.304688 108.984375 93.984375 109.109375 C 95.664062 109.230469 97.335938 109.414062 99.003906 109.660156 C 100.667969 109.90625 102.324219 110.210938 103.96875 110.578125 C 105.609375 110.945312 107.238281 111.371094 108.851562 111.859375 C 110.464844 112.34375 112.054688 112.890625 113.628906 113.492188 C 115.203125 114.09375 116.75 114.753906 118.273438 115.46875 C 119.796875 116.1875 121.292969 116.957031 122.761719 117.78125 C 124.230469 118.609375 125.667969 119.484375 127.070312 120.417969 C 128.472656 121.347656 129.839844 122.328125 131.171875 123.359375 C 132.503906 124.390625 133.796875 125.46875 135.050781 126.59375 C 136.300781 127.71875 137.511719 128.886719 138.679688 130.101562 C 139.847656 131.316406 140.96875 132.570312 142.042969 133.867188 C 143.117188 135.164062 144.144531 136.496094 145.125 137.867188 C 146.101562 139.238281 147.027344 140.644531 147.902344 142.082031 C 148.777344 143.523438 149.597656 144.992188 150.363281 146.492188 C 151.132812 147.992188 151.84375 149.515625 152.5 151.066406 Z M 152.5 151.066406 " fill-opacity="1" fill-rule="nonzero"/><path fill="#ffadad" d="M 88.902344 89.382812 C 89.722656 89.382812 90.53125 89.464844 91.335938 89.625 C 92.136719 89.78125 92.917969 90.019531 93.675781 90.332031 C 94.429688 90.644531 95.148438 91.03125 95.828125 91.484375 C 96.507812 91.941406 97.140625 92.457031 97.71875 93.035156 C 98.296875 93.613281 98.8125 94.242188 99.269531 94.925781 C 99.722656 95.605469 100.105469 96.324219 100.421875 97.078125 C 100.734375 97.835938 100.96875 98.613281 101.128906 99.417969 C 101.289062 100.222656 101.371094 101.03125 101.371094 101.851562 L 101.371094 112.84375 C 101.371094 113.664062 101.289062 114.472656 101.128906 115.277344 C 100.96875 116.082031 100.734375 116.859375 100.421875 117.617188 C 100.105469 118.371094 99.722656 119.089844 99.269531 119.769531 C 98.8125 120.453125 98.296875 121.082031 97.71875 121.660156 C 97.140625 122.238281 96.507812 122.753906 95.828125 123.210938 C 95.148438 123.664062 94.429688 124.050781 93.675781 124.363281 C 92.917969 124.675781 92.136719 124.914062 91.335938 125.070312 C 90.53125 125.230469 89.722656 125.3125 88.902344 125.3125 C 88.085938 125.3125 87.273438 125.230469 86.472656 125.070312 C 85.667969 124.914062 84.890625 124.675781 84.132812 124.363281 C 83.375 124.050781 82.65625 123.664062 81.976562 123.210938 C 81.296875 122.753906 80.667969 122.238281 80.089844 121.660156 C 79.507812 121.082031 78.992188 120.453125 78.539062 119.769531 C 78.082031 119.089844 77.699219 118.371094 77.386719 117.617188 C 77.074219 116.859375 76.835938 116.082031 76.675781 115.277344 C 76.515625 114.472656 76.4375 113.664062 76.4375 112.84375 L 76.4375 101.851562 C 76.4375 101.03125 76.515625 100.222656 76.675781 99.417969 C 76.835938 98.613281 77.074219 97.835938 77.386719 97.078125 C 77.699219 96.324219 78.082031 95.605469 78.539062 94.925781 C 78.992188 94.242188 79.507812 93.613281 80.089844 93.035156 C 80.667969 92.457031 81.296875 91.941406 81.976562 91.484375 C 82.65625 91.03125 83.375 90.644531 84.132812 90.332031 C 84.890625 90.019531 85.667969 89.78125 86.472656 89.625 C 87.273438 89.464844 88.085938 89.382812 88.902344 89.382812 Z M 88.902344 89.382812 " fill-opacity="1" fill-rule="nonzero"/><path fill="#ffadad" d="M 66.179688 81.535156 C 66.179688 82.050781 66.132812 82.5625 66.03125 83.070312 C 65.929688 83.574219 65.78125 84.066406 65.582031 84.542969 C 65.386719 85.019531 65.144531 85.472656 64.855469 85.902344 C 64.570312 86.332031 64.242188 86.730469 63.878906 87.09375 C 63.515625 87.457031 63.117188 87.785156 62.6875 88.070312 C 62.257812 88.359375 61.804688 88.601562 61.328125 88.796875 C 60.851562 88.996094 60.359375 89.144531 59.855469 89.246094 C 59.347656 89.347656 58.835938 89.394531 58.320312 89.394531 C 57.804688 89.394531 57.292969 89.347656 56.785156 89.246094 C 56.28125 89.144531 55.789062 88.996094 55.3125 88.796875 C 54.835938 88.601562 54.382812 88.359375 53.953125 88.070312 C 53.523438 87.785156 53.125 87.457031 52.761719 87.09375 C 52.394531 86.730469 52.070312 86.332031 51.785156 85.902344 C 51.496094 85.472656 51.253906 85.019531 51.058594 84.542969 C 50.859375 84.066406 50.710938 83.574219 50.609375 83.070312 C 50.507812 82.5625 50.457031 82.050781 50.457031 81.535156 C 50.457031 81.019531 50.507812 80.507812 50.609375 80 C 50.710938 79.496094 50.859375 79.003906 51.058594 78.527344 C 51.253906 78.050781 51.496094 77.597656 51.785156 77.167969 C 52.070312 76.738281 52.394531 76.339844 52.761719 75.976562 C 53.125 75.609375 53.523438 75.285156 53.953125 75 C 54.382812 74.710938 54.835938 74.46875 55.3125 74.273438 C 55.789062 74.074219 56.28125 73.925781 56.785156 73.824219 C 57.292969 73.722656 57.804688 73.671875 58.320312 73.671875 C 58.835938 73.671875 59.347656 73.722656 59.855469 73.824219 C 60.359375 73.925781 60.851562 74.074219 61.328125 74.273438 C 61.804688 74.46875 62.257812 74.710938 62.6875 75 C 63.117188 75.285156 63.515625 75.609375 63.878906 75.976562 C 64.242188 76.339844 64.570312 76.738281 64.855469 77.167969 C 65.144531 77.597656 65.386719 78.050781 65.582031 78.527344 C 65.78125 79.003906 65.929688 79.496094 66.03125 80 C 66.132812 80.507812 66.179688 81.019531 66.179688 81.535156 Z M 66.179688 81.535156 " fill-opacity="1" fill-rule="nonzero"/><path fill="#ffadad" d="M 126.617188 81.535156 C 126.617188 82.050781 126.566406 82.5625 126.464844 83.070312 C 126.363281 83.574219 126.214844 84.066406 126.015625 84.542969 C 125.820312 85.019531 125.578125 85.472656 125.292969 85.902344 C 125.003906 86.332031 124.679688 86.730469 124.3125 87.09375 C 123.949219 87.457031 123.550781 87.785156 123.121094 88.070312 C 122.691406 88.359375 122.238281 88.601562 121.761719 88.796875 C 121.285156 88.996094 120.792969 89.144531 120.289062 89.246094 C 119.78125 89.347656 119.269531 89.394531 118.753906 89.394531 C 118.238281 89.394531 117.726562 89.347656 117.222656 89.246094 C 116.714844 89.144531 116.222656 88.996094 115.746094 88.796875 C 115.269531 88.601562 114.816406 88.359375 114.386719 88.070312 C 113.957031 87.785156 113.5625 87.457031 113.195312 87.09375 C 112.832031 86.730469 112.503906 86.332031 112.21875 85.902344 C 111.929688 85.472656 111.6875 85.019531 111.492188 84.542969 C 111.292969 84.066406 111.144531 83.574219 111.042969 83.070312 C 110.945312 82.5625 110.894531 82.050781 110.894531 81.535156 C 110.894531 81.019531 110.945312 80.507812 111.042969 80 C 111.144531 79.496094 111.292969 79.003906 111.492188 78.527344 C 111.6875 78.050781 111.929688 77.597656 112.21875 77.167969 C 112.503906 76.738281 112.832031 76.339844 113.195312 75.976562 C 113.5625 75.609375 113.957031 75.285156 114.386719 75 C 114.816406 74.710938 115.269531 74.46875 115.746094 74.273438 C 116.222656 74.074219 116.714844 73.925781 117.222656 73.824219 C 117.726562 73.722656 118.238281 73.671875 118.753906 73.671875 C 119.269531 73.671875 119.78125 73.722656 120.289062 73.824219 C 120.792969 73.925781 121.285156 74.074219 121.761719 74.273438 C 122.238281 74.46875 122.691406 74.710938 123.121094 75 C 123.550781 75.285156 123.949219 75.609375 124.3125 75.976562 C 124.679688 76.339844 125.003906 76.738281 125.292969 77.167969 C 125.578125 77.597656 125.820312 78.050781 126.015625 78.527344 C 126.214844 79.003906 126.363281 79.496094 126.464844 80 C 126.566406 80.507812 126.617188 81.019531 126.617188 81.535156 Z M 126.617188 81.535156 " fill-opacity="1" fill-rule="nonzero"/><path fill="#ffd6d6" d="M 88.9375 39.773438 C 89.941406 39.773438 90.941406 39.820312 91.9375 39.917969 C 92.9375 40.019531 93.925781 40.164062 94.910156 40.359375 C 95.894531 40.554688 96.867188 40.800781 97.824219 41.089844 C 98.785156 41.382812 99.726562 41.71875 100.65625 42.101562 C 101.582031 42.488281 102.484375 42.914062 103.371094 43.386719 C 104.253906 43.859375 105.113281 44.375 105.949219 44.933594 C 106.78125 45.488281 107.585938 46.085938 108.359375 46.722656 C 109.136719 47.359375 109.878906 48.03125 110.585938 48.738281 C 111.296875 49.449219 111.96875 50.191406 112.605469 50.964844 C 113.242188 51.742188 113.839844 52.546875 114.394531 53.378906 C 114.953125 54.214844 115.46875 55.074219 115.941406 55.957031 C 116.414062 56.839844 116.839844 57.746094 117.222656 58.671875 C 117.609375 59.597656 117.945312 60.542969 118.238281 61.503906 C 118.527344 62.460938 118.769531 63.433594 118.964844 64.417969 C 119.164062 65.398438 119.308594 66.390625 119.40625 67.390625 C 119.507812 68.386719 119.554688 69.386719 119.554688 70.390625 L 119.554688 78.304688 C 119.554688 79.308594 119.507812 80.308594 119.40625 81.304688 C 119.308594 82.304688 119.164062 83.292969 118.964844 84.277344 C 118.769531 85.261719 118.527344 86.234375 118.238281 87.191406 C 117.945312 88.152344 117.609375 89.09375 117.222656 90.019531 C 116.839844 90.949219 116.414062 91.851562 115.941406 92.738281 C 115.46875 93.621094 114.953125 94.480469 114.394531 95.316406 C 113.839844 96.148438 113.242188 96.953125 112.605469 97.726562 C 111.96875 98.503906 111.296875 99.246094 110.585938 99.953125 C 109.878906 100.664062 109.136719 101.335938 108.359375 101.972656 C 107.585938 102.609375 106.78125 103.207031 105.949219 103.761719 C 105.113281 104.320312 104.253906 104.835938 103.371094 105.308594 C 102.484375 105.78125 101.582031 106.207031 100.65625 106.589844 C 99.726562 106.976562 98.785156 107.3125 97.824219 107.605469 C 96.867188 107.894531 95.894531 108.136719 94.910156 108.335938 C 93.925781 108.53125 92.9375 108.675781 91.9375 108.773438 C 90.941406 108.875 89.941406 108.921875 88.9375 108.921875 C 87.933594 108.921875 86.933594 108.875 85.9375 108.773438 C 84.9375 108.675781 83.949219 108.53125 82.964844 108.335938 C 81.980469 108.136719 81.007812 107.894531 80.050781 107.605469 C 79.089844 107.3125 78.148438 106.976562 77.222656 106.589844 C 76.292969 106.207031 75.390625 105.78125 74.503906 105.308594 C 73.621094 104.835938 72.761719 104.320312 71.925781 103.761719 C 71.09375 103.207031 70.289062 102.609375 69.515625 101.972656 C 68.738281 101.335938 67.996094 100.664062 67.289062 99.953125 C 66.578125 99.246094 65.90625 98.503906 65.269531 97.726562 C 64.632812 96.953125 64.039062 96.148438 63.480469 95.316406 C 62.921875 94.480469 62.40625 93.621094 61.933594 92.738281 C 61.460938 91.851562 61.035156 90.949219 60.652344 90.019531 C 60.265625 89.09375 59.929688 88.152344 59.636719 87.191406 C 59.347656 86.234375 59.105469 85.261719 58.910156 84.277344 C 58.710938 83.292969 58.566406 82.304688 58.46875 81.304688 C 58.371094 80.308594 58.320312 79.308594 58.320312 78.304688 L 58.320312 70.390625 C 58.320312 69.386719 58.371094 68.386719 58.46875 67.390625 C 58.566406 66.390625 58.710938 65.398438 58.910156 64.417969 C 59.105469 63.433594 59.347656 62.460938 59.636719 61.503906 C 59.929688 60.542969 60.265625 59.597656 60.652344 58.671875 C 61.035156 57.746094 61.460938 56.839844 61.933594 55.957031 C 62.40625 55.074219 62.921875 54.214844 63.480469 53.378906 C 64.039062 52.546875 64.632812 51.742188 65.269531 50.964844 C 65.90625 50.191406 66.578125 49.449219 67.289062 48.738281 C 67.996094 48.03125 68.738281 47.359375 69.515625 46.722656 C 70.289062 46.085938 71.09375 45.488281 71.925781 44.933594 C 72.761719 44.375 73.621094 43.859375 74.503906 43.386719 C 75.390625 42.914062 76.292969 42.488281 77.222656 42.101562 C 78.148438 41.71875 79.089844 41.382812 80.050781 41.089844 C 81.007812 40.800781 81.980469 40.554688 82.964844 40.359375 C 83.949219 40.164062 84.9375 40.019531 85.9375 39.917969 C 86.933594 39.820312 87.933594 39.773438 88.9375 39.773438 Z M 88.9375 39.773438 " fill-opacity="1" fill-rule="nonzero"/><path fill="#002c5c" d="M 58.320312 73.671875 C 99.441406 74.09375 110.894531 50.804688 110.894531 50.804688 C 110.894531 50.804688 112.835938 69.4375 119.554688 74.347656 C 123.070312 54.796875 112.75 37 85.972656 35.667969 C 59.191406 34.339844 51.960938 64.9375 58.320312 73.671875 Z M 58.320312 73.671875 " fill-opacity="1" fill-rule="nonzero"/><g fill="#000000" fill-opacity="1"><g transform="translate(15.46659, 203.88639)"><g><path d="M 1.5 0 L 1.5 -1.5 L 2.984375 -1.5 L 2.984375 -11.96875 L 1.5 -11.96875 L 1.5 -13.453125 L 5.984375 -13.453125 L 5.984375 -11.96875 L 4.484375 -11.96875 L 4.484375 -1.5 L 5.984375 -1.5 L 5.984375 0 Z M 1.5 0 "/></g></g></g><g fill="#000000" fill-opacity="1"><g transform="translate(25.434846, 203.88639)"><g><path d="M 0 0 L 0 -13.453125 L 1.5 -13.453125 L 1.5 -1.5 L 7.484375 -1.5 L 7.484375 0 Z M 0 0 "/></g></g></g><g fill="#000000" fill-opacity="1"><g transform="translate(35.403102, 203.88639)"><g/></g></g><g fill="#000000" fill-opacity="1"><g transform="translate(45.371359, 203.88639)"><g><path d="M 0 0 L 0 -13.453125 L 1.25 -13.453125 L 3.734375 -8.46875 L 6.234375 -13.453125 L 7.484375 -13.453125 L 7.484375 0 L 5.984375 0 L 5.984375 -9.96875 L 4.234375 -6.484375 L 3.234375 -6.484375 L 1.5 -9.96875 L 1.5 0 Z M 0 0 "/></g></g></g><g fill="#000000" fill-opacity="1"><g transform="translate(55.339615, 203.88639)"><g><path d="M 1.5 0 L 1.5 -1.5 L 2.984375 -1.5 L 2.984375 -11.96875 L 1.5 -11.96875 L 1.5 -13.453125 L 5.984375 -13.453125 L 5.984375 -11.96875 L 4.484375 -11.96875 L 4.484375 -1.5 L 5.984375 -1.5 L 5.984375 0 Z M 1.5 0 "/></g></g></g><g fill="#000000" fill-opacity="1"><g transform="translate(65.307871, 203.88639)"><g><path d="M 4.484375 -1.5 L 5.984375 -2.984375 L 5.984375 -10.46875 L 4.484375 -11.96875 L 2.984375 -11.96875 L 1.5 -10.46875 L 1.5 -2.984375 L 2.984375 -1.5 Z M 2.5 0 L 0 -2.5 L 0 -10.96875 L 2.5 -13.453125 L 4.984375 -13.453125 L 7.484375 -10.96875 L 7.484375 -2.5 L 4.984375 0 Z M 2.5 0 "/></g></g></g><g fill="#000000" fill-opacity="1"><g transform="translate(75.276128, 203.88639)"><g/></g></g><g fill="#000000" fill-opacity="1"><g transform="translate(85.244384, 203.88639)"><g><path d="M 4.484375 -7.484375 L 5.984375 -8.96875 L 5.984375 -10.46875 L 4.484375 -11.96875 L 1.5 -11.96875 L 1.5 -7.484375 Z M 0 0 L 0 -13.453125 L 4.984375 -13.453125 L 7.484375 -10.96875 L 7.484375 -8.46875 L 4.984375 -5.984375 L 1.5 -5.984375 L 1.5 0 Z M 0 0 "/></g></g></g><g fill="#000000" fill-opacity="1"><g transform="translate(95.212641, 203.88639)"><g><path d="M 4.484375 -7.484375 L 5.984375 -8.96875 L 5.984375 -10.46875 L 4.484375 -11.96875 L 1.5 -11.96875 L 1.5 -7.484375 Z M 0 0 L 0 -13.453125 L 4.984375 -13.453125 L 7.484375 -10.96875 L 7.484375 -8.46875 L 4.984375 -5.984375 L 4.734375 -5.984375 L 7.484375 -0.5 L 6.484375 0 L 6.234375 0 L 3.234375 -5.984375 L 1.5 -5.984375 L 1.5 0 Z M 0 0 "/></g></g></g><g fill="#000000" fill-opacity="1"><g transform="translate(105.180897, 203.88639)"><g><path d="M 4.484375 -1.5 L 5.984375 -2.984375 L 5.984375 -10.46875 L 4.484375 -11.96875 L 2.984375 -11.96875 L 1.5 -10.46875 L 1.5 -2.984375 L 2.984375 -1.5 Z M 2.5 0 L 0 -2.5 L 0 -10.96875 L 2.5 -13.453125 L 4.984375 -13.453125 L 7.484375 -10.96875 L 7.484375 -2.5 L 4.984375 0 Z M 2.5 0 "/></g></g></g><g fill="#000000" fill-opacity="1"><g transform="translate(115.149153, 203.88639)"><g><path d="M 0 0 L 0 -13.453125 L 7.484375 -13.453125 L 7.484375 -11.96875 L 1.5 -11.96875 L 1.5 -7.484375 L 5.984375 -7.484375 L 5.984375 -5.984375 L 1.5 -5.984375 L 1.5 0 Z M 0 0 "/></g></g></g><g fill="#000000" fill-opacity="1"><g transform="translate(125.11741, 203.88639)"><g><path d="M 1.5 0 L 1.5 -1.5 L 2.984375 -1.5 L 2.984375 -11.96875 L 1.5 -11.96875 L 1.5 -13.453125 L 5.984375 -13.453125 L 5.984375 -11.96875 L 4.484375 -11.96875 L 4.484375 -1.5 L 5.984375 -1.5 L 5.984375 0 Z M 1.5 0 "/></g></g></g><g fill="#000000" fill-opacity="1"><g transform="translate(135.085666, 203.88639)"><g><path d="M 0 0 L 0 -13.453125 L 1.5 -13.453125 L 1.5 -1.5 L 7.484375 -1.5 L 7.484375 0 Z M 0 0 "/></g></g></g><g fill="#000000" fill-opacity="1"><g transform="translate(145.053922, 203.88639)"><g><path d="M 4.484375 -1.5 L 5.984375 -2.984375 L 5.984375 -10.46875 L 4.484375 -11.96875 L 2.984375 -11.96875 L 1.5 -10.46875 L 1.5 -2.984375 L 2.984375 -1.5 Z M 2.5 0 L 0 -2.5 L 0 -10.96875 L 2.5 -13.453125 L 4.984375 -13.453125 L 7.484375 -10.96875 L 7.484375 -2.5 L 4.984375 0 Z M 2.5 0 "/></g></g></g></g></g></svg>