<svg xmlns="http://www.w3.org/2000/svg" xmlns:xlink="http://www.w3.org/1999/xlink" width="359" zoomAndPan="magnify" viewBox="0 0 269.25 269.249989" height="359" preserveAspectRatio="xMidYMid meet" version="1.0"><defs><g/><clipPath id="8a68f17b17"><path d="M 38 218 L 187 218 L 187 250.71875 L 38 250.71875 Z M 38 218 " clip-rule="nonzero"/></clipPath><clipPath id="c3419c46fb"><rect x="0" width="149" y="0" height="33"/></clipPath><clipPath id="b75a13f188"><path d="M 1.199219 0.480469 L 219.554688 0.480469 L 219.554688 218.835938 L 1.199219 218.835938 Z M 1.199219 0.480469 " clip-rule="nonzero"/></clipPath><clipPath id="636a0b00f4"><path d="M 32 133 L 189 133 L 189 218.835938 L 32 218.835938 Z M 32 133 " clip-rule="nonzero"/></clipPath><clipPath id="f966514b63"><rect x="0" width="221" y="0" height="251"/></clipPath></defs><g transform="matrix(1, 0, 0, 1, 22, 8)"><g clip-path="url(#f966514b63)"><g clip-path="url(#8a68f17b17)"><g transform="matrix(1, 0, 0, 1, 38, 218)"><g clip-path="url(#c3419c46fb)"><path fill="#ffffff" d="M 9.039062 1.285156 L 139.464844 1.285156 C 143.691406 1.285156 147.121094 4.710938 147.121094 8.941406 L 147.121094 24.253906 C 147.121094 28.484375 143.691406 31.910156 139.464844 31.910156 L 9.039062 31.910156 C 4.808594 31.910156 1.382812 28.484375 1.382812 24.253906 L 1.382812 8.941406 C 1.382812 4.710938 4.808594 1.285156 9.039062 1.285156 Z M 9.039062 1.285156 " fill-opacity="1" fill-rule="nonzero"/><g fill="#000000" fill-opacity="1"><g transform="translate(12.646343, 22.758232)"><g><path d="M 1.3125 0 L 1.3125 -1.3125 L 2.640625 -1.3125 L 2.640625 -10.5625 L 1.3125 -10.5625 L 1.3125 -11.875 L 5.28125 -11.875 L 5.28125 -10.5625 L 3.953125 -10.5625 L 3.953125 -1.3125 L 5.28125 -1.3125 L 5.28125 0 Z M 1.3125 0 "/></g></g><g transform="translate(21.447015, 22.758232)"><g><path d="M 0 0 L 0 -11.875 L 1.3125 -11.875 L 1.3125 -1.3125 L 6.59375 -1.3125 L 6.59375 0 Z M 0 0 "/></g></g><g transform="translate(30.247687, 22.758232)"><g/></g><g transform="translate(39.048358, 22.758232)"><g><path d="M 0 0 L 0 -11.875 L 1.09375 -11.875 L 3.296875 -7.484375 L 5.5 -11.875 L 6.59375 -11.875 L 6.59375 0 L 5.28125 0 L 5.28125 -8.796875 L 3.734375 -5.71875 L 2.859375 -5.71875 L 1.3125 -8.796875 L 1.3125 0 Z M 0 0 "/></g></g><g transform="translate(47.84903, 22.758232)"><g><path d="M 1.3125 0 L 1.3125 -1.3125 L 2.640625 -1.3125 L 2.640625 -10.5625 L 1.3125 -10.5625 L 1.3125 -11.875 L 5.28125 -11.875 L 5.28125 -10.5625 L 3.953125 -10.5625 L 3.953125 -1.3125 L 5.28125 -1.3125 L 5.28125 0 Z M 1.3125 0 "/></g></g><g transform="translate(56.649702, 22.758232)"><g><path d="M 3.953125 -1.3125 L 5.28125 -2.640625 L 5.28125 -9.234375 L 3.953125 -10.5625 L 2.640625 -10.5625 L 1.3125 -9.234375 L 1.3125 -2.640625 L 2.640625 -1.3125 Z M 2.203125 0 L 0 -2.203125 L 0 -9.671875 L 2.203125 -11.875 L 4.40625 -11.875 L 6.59375 -9.671875 L 6.59375 -2.203125 L 4.40625 0 Z M 2.203125 0 "/></g></g><g transform="translate(65.450374, 22.758232)"><g/></g><g transform="translate(74.251045, 22.758232)"><g><path d="M 3.953125 -6.59375 L 5.28125 -7.921875 L 5.28125 -9.234375 L 3.953125 -10.5625 L 1.3125 -10.5625 L 1.3125 -6.59375 Z M 0 0 L 0 -11.875 L 4.40625 -11.875 L 6.59375 -9.671875 L 6.59375 -7.484375 L 4.40625 -5.28125 L 1.3125 -5.28125 L 1.3125 0 Z M 0 0 "/></g></g><g transform="translate(83.051717, 22.758232)"><g><path d="M 3.953125 -6.59375 L 5.28125 -7.921875 L 5.28125 -9.234375 L 3.953125 -10.5625 L 1.3125 -10.5625 L 1.3125 -6.59375 Z M 0 0 L 0 -11.875 L 4.40625 -11.875 L 6.59375 -9.671875 L 6.59375 -7.484375 L 4.40625 -5.28125 L 4.171875 -5.28125 L 6.59375 -0.4375 L 5.71875 0 L 5.5 0 L 2.859375 -5.28125 L 1.3125 -5.28125 L 1.3125 0 Z M 0 0 "/></g></g><g transform="translate(91.852389, 22.758232)"><g><path d="M 3.953125 -1.3125 L 5.28125 -2.640625 L 5.28125 -9.234375 L 3.953125 -10.5625 L 2.640625 -10.5625 L 1.3125 -9.234375 L 1.3125 -2.640625 L 2.640625 -1.3125 Z M 2.203125 0 L 0 -2.203125 L 0 -9.671875 L 2.203125 -11.875 L 4.40625 -11.875 L 6.59375 -9.671875 L 6.59375 -2.203125 L 4.40625 0 Z M 2.203125 0 "/></g></g><g transform="translate(100.653061, 22.758232)"><g><path d="M 0 0 L 0 -11.875 L 6.59375 -11.875 L 6.59375 -10.5625 L 1.3125 -10.5625 L 1.3125 -6.59375 L 5.28125 -6.59375 L 5.28125 -5.28125 L 1.3125 -5.28125 L 1.3125 0 Z M 0 0 "/></g></g><g transform="translate(109.453732, 22.758232)"><g><path d="M 1.3125 0 L 1.3125 -1.3125 L 2.640625 -1.3125 L 2.640625 -10.5625 L 1.3125 -10.5625 L 1.3125 -11.875 L 5.28125 -11.875 L 5.28125 -10.5625 L 3.953125 -10.5625 L 3.953125 -1.3125 L 5.28125 -1.3125 L 5.28125 0 Z M 1.3125 0 "/></g></g><g transform="translate(118.254404, 22.758232)"><g><path d="M 0 0 L 0 -11.875 L 1.3125 -11.875 L 1.3125 -1.3125 L 6.59375 -1.3125 L 6.59375 0 Z M 0 0 "/></g></g><g transform="translate(127.055076, 22.758232)"><g><path d="M 3.953125 -1.3125 L 5.28125 -2.640625 L 5.28125 -9.234375 L 3.953125 -10.5625 L 2.640625 -10.5625 L 1.3125 -9.234375 L 1.3125 -2.640625 L 2.640625 -1.3125 Z M 2.203125 0 L 0 -2.203125 L 0 -9.671875 L 2.203125 -11.875 L 4.40625 -11.875 L 6.59375 -9.671875 L 6.59375 -2.203125 L 4.40625 0 Z M 2.203125 0 "/></g></g></g></g></g></g><g clip-path="url(#b75a13f188)"><path fill="#ffadad" d="M 219.667969 109.714844 C 219.667969 111.5 219.621094 113.289062 219.535156 115.074219 C 219.449219 116.859375 219.316406 118.640625 219.140625 120.421875 C 218.964844 122.199219 218.746094 123.972656 218.484375 125.742188 C 218.222656 127.507812 217.917969 129.269531 217.566406 131.023438 C 217.21875 132.777344 216.828125 134.519531 216.394531 136.253906 C 215.957031 137.988281 215.480469 139.710938 214.964844 141.421875 C 214.445312 143.132812 213.882812 144.828125 213.28125 146.511719 C 212.679688 148.195312 212.035156 149.863281 211.351562 151.515625 C 210.667969 153.167969 209.941406 154.800781 209.179688 156.417969 C 208.414062 158.03125 207.609375 159.628906 206.769531 161.207031 C 205.925781 162.78125 205.042969 164.335938 204.125 165.871094 C 203.207031 167.402344 202.25 168.914062 201.257812 170.398438 C 200.265625 171.886719 199.234375 173.347656 198.171875 174.785156 C 197.105469 176.21875 196.003906 177.628906 194.871094 179.011719 C 193.738281 180.390625 192.570312 181.746094 191.371094 183.070312 C 190.167969 184.394531 188.9375 185.6875 187.671875 186.953125 C 186.410156 188.21875 185.113281 189.449219 183.789062 190.648438 C 182.464844 191.851562 181.113281 193.019531 179.730469 194.152344 C 178.347656 195.285156 176.9375 196.386719 175.503906 197.449219 C 174.066406 198.515625 172.605469 199.542969 171.121094 200.539062 C 169.632812 201.53125 168.125 202.488281 166.589844 203.40625 C 165.058594 204.324219 163.5 205.207031 161.925781 206.050781 C 160.347656 206.890625 158.753906 207.695312 157.136719 208.460938 C 155.519531 209.222656 153.886719 209.949219 152.234375 210.632812 C 150.582031 211.316406 148.914062 211.960938 147.230469 212.5625 C 145.550781 213.164062 143.851562 213.726562 142.140625 214.242188 C 140.429688 214.761719 138.707031 215.238281 136.972656 215.671875 C 135.238281 216.109375 133.496094 216.5 131.742188 216.847656 C 129.988281 217.195312 128.230469 217.503906 126.460938 217.765625 C 124.691406 218.027344 122.917969 218.246094 121.140625 218.421875 C 119.359375 218.597656 117.578125 218.726562 115.792969 218.816406 C 114.007812 218.902344 112.21875 218.949219 110.433594 218.949219 C 108.644531 218.949219 106.859375 218.902344 105.074219 218.816406 C 103.285156 218.726562 101.503906 218.597656 99.726562 218.421875 C 97.945312 218.246094 96.171875 218.027344 94.40625 217.765625 C 92.636719 217.503906 90.875 217.195312 89.121094 216.847656 C 87.367188 216.5 85.625 216.109375 83.890625 215.671875 C 82.15625 215.238281 80.433594 214.761719 78.722656 214.242188 C 77.011719 213.726562 75.316406 213.164062 73.632812 212.5625 C 71.949219 211.960938 70.28125 211.316406 68.628906 210.632812 C 66.980469 209.949219 65.34375 209.222656 63.730469 208.460938 C 62.113281 207.695312 60.515625 206.890625 58.941406 206.050781 C 57.363281 205.207031 55.808594 204.324219 54.273438 203.40625 C 52.742188 202.488281 51.230469 201.53125 49.746094 200.539062 C 48.257812 199.542969 46.796875 198.515625 45.363281 197.449219 C 43.925781 196.386719 42.515625 195.285156 41.136719 194.152344 C 39.753906 193.019531 38.398438 191.851562 37.074219 190.648438 C 35.75 189.449219 34.457031 188.21875 33.191406 186.953125 C 31.929688 185.6875 30.695312 184.394531 29.496094 183.070312 C 28.292969 181.746094 27.128906 180.390625 25.992188 179.011719 C 24.859375 177.628906 23.757812 176.21875 22.695312 174.785156 C 21.628906 173.347656 20.601562 171.886719 19.609375 170.398438 C 18.613281 168.914062 17.660156 167.402344 16.738281 165.871094 C 15.820312 164.335938 14.9375 162.78125 14.097656 161.207031 C 13.253906 159.628906 12.449219 158.03125 11.6875 156.417969 C 10.921875 154.800781 10.199219 153.167969 9.511719 151.515625 C 8.828125 149.863281 8.1875 148.195312 7.582031 146.511719 C 6.980469 144.828125 6.421875 143.132812 5.902344 141.421875 C 5.382812 139.710938 4.90625 137.988281 4.472656 136.253906 C 4.039062 134.519531 3.644531 132.777344 3.296875 131.023438 C 2.949219 129.269531 2.644531 127.507812 2.378906 125.742188 C 2.117188 123.972656 1.898438 122.199219 1.722656 120.421875 C 1.550781 118.640625 1.417969 116.859375 1.328125 115.074219 C 1.242188 113.289062 1.199219 111.5 1.199219 109.714844 C 1.199219 107.925781 1.242188 106.140625 1.328125 104.351562 C 1.417969 102.566406 1.550781 100.785156 1.722656 99.007812 C 1.898438 97.226562 2.117188 95.453125 2.378906 93.683594 C 2.644531 91.917969 2.949219 90.15625 3.296875 88.402344 C 3.644531 86.648438 4.039062 84.90625 4.472656 83.171875 C 4.90625 81.4375 5.382812 79.714844 5.902344 78.003906 C 6.421875 76.292969 6.980469 74.597656 7.582031 72.914062 C 8.1875 71.230469 8.828125 69.5625 9.511719 67.910156 C 10.199219 66.257812 10.921875 64.625 11.6875 63.007812 C 12.449219 61.394531 13.253906 59.796875 14.097656 58.21875 C 14.9375 56.644531 15.820312 55.089844 16.738281 53.554688 C 17.660156 52.023438 18.613281 50.511719 19.609375 49.027344 C 20.601562 47.539062 21.628906 46.078125 22.695312 44.640625 C 23.757812 43.207031 24.859375 41.796875 25.992188 40.414062 C 27.128906 39.035156 28.292969 37.679688 29.496094 36.355469 C 30.695312 35.03125 31.929688 33.738281 33.191406 32.472656 C 34.457031 31.207031 35.75 29.976562 37.074219 28.777344 C 38.398438 27.574219 39.753906 26.40625 41.136719 25.273438 C 42.515625 24.140625 43.925781 23.039062 45.363281 21.976562 C 46.796875 20.910156 48.257812 19.882812 49.746094 18.886719 C 51.230469 17.894531 52.742188 16.9375 54.273438 16.019531 C 55.808594 15.101562 57.363281 14.21875 58.941406 13.378906 C 60.515625 12.535156 62.113281 11.730469 63.730469 10.964844 C 65.34375 10.203125 66.980469 9.476562 68.628906 8.792969 C 70.28125 8.109375 71.949219 7.464844 73.632812 6.863281 C 75.316406 6.261719 77.011719 5.703125 78.722656 5.183594 C 80.433594 4.664062 82.15625 4.1875 83.890625 3.753906 C 85.625 3.316406 87.367188 2.925781 89.121094 2.578125 C 90.875 2.230469 92.636719 1.921875 94.40625 1.660156 C 96.171875 1.398438 97.945312 1.179688 99.726562 1.003906 C 101.503906 0.828125 103.285156 0.699219 105.074219 0.609375 C 106.859375 0.523438 108.644531 0.480469 110.433594 0.480469 C 112.21875 0.480469 114.007812 0.523438 115.792969 0.609375 C 117.578125 0.699219 119.359375 0.828125 121.140625 1.003906 C 122.917969 1.179688 124.691406 1.398438 126.460938 1.660156 C 128.230469 1.921875 129.988281 2.230469 131.742188 2.578125 C 133.496094 2.925781 135.238281 3.316406 136.972656 3.753906 C 138.707031 4.1875 140.429688 4.664062 142.140625 5.183594 C 143.851562 5.703125 145.550781 6.261719 147.230469 6.863281 C 148.914062 7.464844 150.582031 8.109375 152.234375 8.792969 C 153.886719 9.476562 155.519531 10.203125 157.136719 10.964844 C 158.753906 11.730469 160.347656 12.535156 161.925781 13.378906 C 163.5 14.21875 165.058594 15.101562 166.589844 16.019531 C 168.125 16.9375 169.632812 17.894531 171.121094 18.886719 C 172.605469 19.882812 174.066406 20.910156 175.503906 21.976562 C 176.9375 23.039062 178.347656 24.140625 179.730469 25.273438 C 181.113281 26.40625 182.464844 27.574219 183.789062 28.777344 C 185.113281 29.976562 186.410156 31.207031 187.671875 32.472656 C 188.9375 33.738281 190.167969 35.03125 191.371094 36.355469 C 192.570312 37.679688 193.738281 39.035156 194.871094 40.414062 C 196.003906 41.796875 197.105469 43.207031 198.171875 44.640625 C 199.234375 46.078125 200.265625 47.539062 201.257812 49.027344 C 202.25 50.511719 203.207031 52.023438 204.125 53.554688 C 205.042969 55.089844 205.925781 56.644531 206.769531 58.21875 C 207.609375 59.796875 208.414062 61.394531 209.179688 63.007812 C 209.941406 64.625 210.667969 66.257812 211.351562 67.910156 C 212.035156 69.5625 212.679688 71.230469 213.28125 72.914062 C 213.882812 74.597656 214.445312 76.292969 214.964844 78.003906 C 215.480469 79.714844 215.957031 81.4375 216.394531 83.171875 C 216.828125 84.90625 217.21875 86.648438 217.566406 88.402344 C 217.917969 90.15625 218.222656 91.917969 218.484375 93.683594 C 218.746094 95.453125 218.964844 97.226562 219.140625 99.007812 C 219.316406 100.785156 219.449219 102.566406 219.535156 104.351562 C 219.621094 106.140625 219.667969 107.925781 219.667969 109.714844 Z M 219.667969 109.714844 " fill-opacity="1" fill-rule="nonzero"/></g><path fill="#002c5c" d="M 138.375 48.5 C 132.835938 27.226562 69.625 18.800781 61.214844 69.496094 C 52.800781 120.191406 23.042969 162.46875 90.148438 172.730469 C 157.257812 182.992188 171.625 158.160156 167.519531 125.53125 C 163.414062 92.898438 155.820312 46.585938 138.375 48.5 Z M 138.375 48.5 " fill-opacity="1" fill-rule="nonzero"/><g clip-path="url(#636a0b00f4)"><path fill="#0cc0df" d="M 188.855469 185.820312 C 187.585938 187.125 186.285156 188.402344 184.949219 189.644531 C 183.617188 190.886719 182.253906 192.09375 180.859375 193.269531 C 179.464844 194.445312 178.042969 195.582031 176.59375 196.6875 C 175.144531 197.789062 173.664062 198.855469 172.160156 199.886719 C 170.65625 200.914062 169.128906 201.90625 167.574219 202.859375 C 166.023438 203.8125 164.445312 204.722656 162.847656 205.597656 C 161.246094 206.472656 159.625 207.304688 157.984375 208.097656 C 156.34375 208.890625 154.683594 209.644531 153.007812 210.351562 C 151.328125 211.0625 149.632812 211.730469 147.921875 212.355469 C 146.207031 212.980469 144.480469 213.5625 142.742188 214.101562 C 141 214.640625 139.246094 215.136719 137.480469 215.585938 C 135.714844 216.035156 133.9375 216.445312 132.152344 216.804688 C 130.367188 217.167969 128.574219 217.484375 126.769531 217.757812 C 124.96875 218.03125 123.160156 218.257812 121.347656 218.4375 C 119.535156 218.621094 117.71875 218.757812 115.898438 218.847656 C 114.078125 218.941406 112.253906 218.984375 110.433594 218.984375 C 108.609375 218.984375 106.789062 218.941406 104.96875 218.847656 C 103.148438 218.757812 101.332031 218.621094 99.519531 218.4375 C 97.703125 218.257812 95.898438 218.03125 94.09375 217.757812 C 92.292969 217.484375 90.5 217.167969 88.710938 216.804688 C 86.925781 216.445312 85.148438 216.035156 83.382812 215.585938 C 81.617188 215.136719 79.863281 214.640625 78.125 214.101562 C 76.382812 213.5625 74.65625 212.980469 72.945312 212.355469 C 71.234375 211.730469 69.539062 211.0625 67.859375 210.351562 C 66.179688 209.644531 64.519531 208.890625 62.878906 208.097656 C 61.238281 207.304688 59.617188 206.472656 58.019531 205.597656 C 56.417969 204.722656 54.84375 203.8125 53.289062 202.859375 C 51.734375 201.90625 50.207031 200.914062 48.703125 199.886719 C 47.199219 198.855469 45.722656 197.789062 44.269531 196.6875 C 42.820312 195.582031 41.398438 194.445312 40.003906 193.269531 C 38.609375 192.09375 37.246094 190.886719 35.914062 189.644531 C 34.582031 188.402344 33.28125 187.125 32.011719 185.820312 C 32.820312 183.90625 33.695312 182.023438 34.644531 180.171875 C 35.589844 178.324219 36.601562 176.511719 37.683594 174.734375 C 38.761719 172.960938 39.902344 171.226562 41.109375 169.535156 C 42.316406 167.84375 43.582031 166.195312 44.910156 164.597656 C 46.238281 163 47.621094 161.449219 49.058594 159.953125 C 50.5 158.453125 51.992188 157.011719 53.539062 155.621094 C 55.085938 154.234375 56.679688 152.902344 58.324219 151.632812 C 59.964844 150.359375 61.652344 149.148438 63.386719 148 C 65.117188 146.851562 66.886719 145.769531 68.699219 144.75 C 70.511719 143.734375 72.355469 142.78125 74.238281 141.898438 C 76.117188 141.015625 78.027344 140.203125 79.96875 139.457031 C 81.910156 138.714844 83.875 138.042969 85.863281 137.441406 C 87.851562 136.84375 89.863281 136.316406 91.890625 135.863281 C 93.917969 135.414062 95.960938 135.035156 98.015625 134.730469 C 100.070312 134.429688 102.136719 134.199219 104.207031 134.050781 C 106.28125 133.898438 108.355469 133.820312 110.433594 133.820312 C 112.511719 133.820312 114.585938 133.898438 116.65625 134.050781 C 118.730469 134.199219 120.792969 134.429688 122.851562 134.730469 C 124.90625 135.035156 126.949219 135.414062 128.976562 135.863281 C 131.003906 136.316406 133.011719 136.84375 135 137.441406 C 136.992188 138.042969 138.957031 138.714844 140.894531 139.457031 C 142.835938 140.203125 144.746094 141.015625 146.628906 141.898438 C 148.507812 142.78125 150.355469 143.734375 152.164062 144.75 C 153.976562 145.769531 155.75 146.851562 157.480469 148 C 159.210938 149.148438 160.898438 150.359375 162.542969 151.632812 C 164.1875 152.902344 165.78125 154.234375 167.324219 155.621094 C 168.871094 157.011719 170.363281 158.453125 171.804688 159.953125 C 173.246094 161.449219 174.628906 163 175.957031 164.597656 C 177.28125 166.195312 178.546875 167.84375 179.753906 169.535156 C 180.960938 171.226562 182.105469 172.960938 183.183594 174.734375 C 184.261719 176.511719 185.273438 178.324219 186.222656 180.171875 C 187.167969 182.023438 188.046875 183.90625 188.855469 185.820312 Z M 188.855469 185.820312 " fill-opacity="1" fill-rule="nonzero"/></g><path fill="#ffadad" d="M 110.390625 109.714844 C 111.398438 109.714844 112.398438 109.8125 113.390625 110.007812 C 114.378906 110.207031 115.34375 110.496094 116.277344 110.882812 C 117.207031 111.269531 118.09375 111.746094 118.933594 112.304688 C 119.773438 112.867188 120.550781 113.503906 121.265625 114.21875 C 121.980469 114.933594 122.617188 115.710938 123.179688 116.550781 C 123.738281 117.386719 124.214844 118.273438 124.601562 119.207031 C 124.984375 120.140625 125.277344 121.101562 125.476562 122.09375 C 125.671875 123.082031 125.769531 124.085938 125.769531 125.09375 L 125.769531 138.660156 C 125.769531 139.671875 125.671875 140.671875 125.476562 141.660156 C 125.277344 142.652344 124.984375 143.613281 124.601562 144.546875 C 124.214844 145.480469 123.738281 146.367188 123.179688 147.207031 C 122.617188 148.046875 121.980469 148.820312 121.265625 149.535156 C 120.550781 150.25 119.773438 150.886719 118.933594 151.449219 C 118.09375 152.011719 117.207031 152.484375 116.277344 152.871094 C 115.34375 153.257812 114.378906 153.546875 113.390625 153.746094 C 112.398438 153.941406 111.398438 154.042969 110.390625 154.042969 C 109.378906 154.042969 108.378906 153.941406 107.390625 153.746094 C 106.398438 153.546875 105.4375 153.257812 104.503906 152.871094 C 103.570312 152.484375 102.683594 152.011719 101.84375 151.449219 C 101.003906 150.886719 100.226562 150.25 99.515625 149.535156 C 98.800781 148.820312 98.160156 148.046875 97.601562 147.207031 C 97.039062 146.367188 96.566406 145.480469 96.179688 144.546875 C 95.792969 143.613281 95.5 142.652344 95.304688 141.660156 C 95.105469 140.671875 95.007812 139.671875 95.007812 138.660156 L 95.007812 125.09375 C 95.007812 124.085938 95.105469 123.082031 95.304688 122.09375 C 95.5 121.101562 95.792969 120.140625 96.179688 119.207031 C 96.566406 118.273438 97.039062 117.386719 97.601562 116.550781 C 98.160156 115.710938 98.800781 114.933594 99.515625 114.21875 C 100.226562 113.503906 101.003906 112.867188 101.84375 112.304688 C 102.683594 111.746094 103.570312 111.269531 104.503906 110.882812 C 105.4375 110.496094 106.398438 110.207031 107.390625 110.007812 C 108.378906 109.8125 109.378906 109.714844 110.390625 109.714844 Z M 110.390625 109.714844 " fill-opacity="1" fill-rule="nonzero"/><path fill="#ffadad" d="M 82.355469 100.027344 C 82.355469 100.667969 82.292969 101.296875 82.167969 101.921875 C 82.042969 102.546875 81.859375 103.152344 81.617188 103.742188 C 81.371094 104.328125 81.074219 104.886719 80.71875 105.417969 C 80.367188 105.949219 79.964844 106.4375 79.515625 106.886719 C 79.0625 107.339844 78.574219 107.738281 78.042969 108.09375 C 77.515625 108.449219 76.957031 108.746094 76.367188 108.992188 C 75.777344 109.234375 75.171875 109.417969 74.546875 109.542969 C 73.921875 109.667969 73.292969 109.730469 72.65625 109.730469 C 72.019531 109.730469 71.386719 109.667969 70.761719 109.542969 C 70.140625 109.417969 69.53125 109.234375 68.945312 108.992188 C 68.355469 108.746094 67.796875 108.449219 67.265625 108.09375 C 66.738281 107.738281 66.246094 107.339844 65.796875 106.886719 C 65.347656 106.4375 64.945312 105.949219 64.589844 105.417969 C 64.238281 104.886719 63.9375 104.328125 63.695312 103.742188 C 63.449219 103.152344 63.265625 102.546875 63.140625 101.921875 C 63.019531 101.296875 62.957031 100.667969 62.957031 100.027344 C 62.957031 99.390625 63.019531 98.761719 63.140625 98.136719 C 63.265625 97.511719 63.449219 96.90625 63.695312 96.316406 C 63.9375 95.730469 64.238281 95.171875 64.589844 94.640625 C 64.945312 94.109375 65.347656 93.621094 65.796875 93.171875 C 66.246094 92.71875 66.738281 92.316406 67.265625 91.964844 C 67.796875 91.609375 68.355469 91.3125 68.945312 91.066406 C 69.53125 90.824219 70.140625 90.640625 70.761719 90.515625 C 71.386719 90.390625 72.019531 90.328125 72.65625 90.328125 C 73.292969 90.328125 73.921875 90.390625 74.546875 90.515625 C 75.171875 90.640625 75.777344 90.824219 76.367188 91.066406 C 76.957031 91.3125 77.515625 91.609375 78.042969 91.964844 C 78.574219 92.316406 79.0625 92.71875 79.515625 93.171875 C 79.964844 93.621094 80.367188 94.109375 80.71875 94.640625 C 81.074219 95.171875 81.371094 95.730469 81.617188 96.316406 C 81.859375 96.90625 82.042969 97.511719 82.167969 98.136719 C 82.292969 98.761719 82.355469 99.390625 82.355469 100.027344 Z M 82.355469 100.027344 " fill-opacity="1" fill-rule="nonzero"/><path fill="#ffadad" d="M 156.921875 100.027344 C 156.921875 100.667969 156.859375 101.296875 156.734375 101.921875 C 156.609375 102.546875 156.425781 103.152344 156.183594 103.742188 C 155.9375 104.328125 155.640625 104.886719 155.285156 105.417969 C 154.929688 105.949219 154.53125 106.4375 154.078125 106.886719 C 153.628906 107.339844 153.140625 107.738281 152.609375 108.09375 C 152.078125 108.449219 151.519531 108.746094 150.933594 108.992188 C 150.34375 109.234375 149.738281 109.417969 149.113281 109.542969 C 148.488281 109.667969 147.859375 109.730469 147.21875 109.730469 C 146.582031 109.730469 145.953125 109.667969 145.328125 109.542969 C 144.703125 109.417969 144.097656 109.234375 143.507812 108.992188 C 142.921875 108.746094 142.363281 108.449219 141.832031 108.09375 C 141.300781 107.738281 140.8125 107.339844 140.363281 106.886719 C 139.910156 106.4375 139.507812 105.949219 139.15625 105.417969 C 138.800781 104.886719 138.503906 104.328125 138.257812 103.742188 C 138.015625 103.152344 137.832031 102.546875 137.707031 101.921875 C 137.582031 101.296875 137.519531 100.667969 137.519531 100.027344 C 137.519531 99.390625 137.582031 98.761719 137.707031 98.136719 C 137.832031 97.511719 138.015625 96.90625 138.257812 96.316406 C 138.503906 95.730469 138.800781 95.171875 139.15625 94.640625 C 139.507812 94.109375 139.910156 93.621094 140.363281 93.171875 C 140.8125 92.71875 141.300781 92.316406 141.832031 91.964844 C 142.363281 91.609375 142.921875 91.3125 143.507812 91.066406 C 144.097656 90.824219 144.703125 90.640625 145.328125 90.515625 C 145.953125 90.390625 146.582031 90.328125 147.21875 90.328125 C 147.859375 90.328125 148.488281 90.390625 149.113281 90.515625 C 149.738281 90.640625 150.34375 90.824219 150.933594 91.066406 C 151.519531 91.3125 152.078125 91.609375 152.609375 91.964844 C 153.140625 92.316406 153.628906 92.71875 154.078125 93.171875 C 154.53125 93.621094 154.929688 94.109375 155.285156 94.640625 C 155.640625 95.171875 155.9375 95.730469 156.183594 96.316406 C 156.425781 96.90625 156.609375 97.511719 156.734375 98.136719 C 156.859375 98.761719 156.921875 99.390625 156.921875 100.027344 Z M 156.921875 100.027344 " fill-opacity="1" fill-rule="nonzero"/><path fill="#ffd6d6" d="M 110.433594 48.5 C 111.667969 48.5 112.902344 48.5625 114.132812 48.683594 C 115.367188 48.804688 116.589844 48.984375 117.800781 49.226562 C 119.015625 49.46875 120.214844 49.769531 121.398438 50.128906 C 122.582031 50.488281 123.746094 50.902344 124.886719 51.378906 C 126.03125 51.851562 127.148438 52.378906 128.238281 52.960938 C 129.332031 53.546875 130.390625 54.179688 131.417969 54.867188 C 132.449219 55.554688 133.441406 56.292969 134.398438 57.078125 C 135.351562 57.863281 136.269531 58.691406 137.144531 59.566406 C 138.019531 60.441406 138.847656 61.355469 139.632812 62.3125 C 140.417969 63.269531 141.15625 64.261719 141.839844 65.289062 C 142.527344 66.320312 143.164062 67.378906 143.746094 68.46875 C 144.332031 69.5625 144.859375 70.679688 145.332031 71.820312 C 145.804688 72.964844 146.222656 74.128906 146.582031 75.3125 C 146.941406 76.496094 147.242188 77.695312 147.480469 78.910156 C 147.722656 80.121094 147.90625 81.34375 148.027344 82.574219 C 148.148438 83.808594 148.207031 85.042969 148.207031 86.277344 L 148.207031 96.042969 C 148.207031 97.28125 148.148438 98.515625 148.027344 99.746094 C 147.90625 100.976562 147.722656 102.199219 147.480469 103.414062 C 147.242188 104.625 146.941406 105.824219 146.582031 107.007812 C 146.222656 108.191406 145.804688 109.355469 145.332031 110.5 C 144.859375 111.644531 144.332031 112.761719 143.746094 113.851562 C 143.164062 114.941406 142.527344 116.003906 141.839844 117.03125 C 141.15625 118.058594 140.417969 119.050781 139.632812 120.007812 C 138.847656 120.964844 138.019531 121.878906 137.144531 122.753906 C 136.269531 123.628906 135.351562 124.460938 134.398438 125.246094 C 133.441406 126.03125 132.449219 126.765625 131.417969 127.453125 C 130.390625 128.140625 129.332031 128.777344 128.238281 129.359375 C 127.148438 129.941406 126.03125 130.472656 124.886719 130.945312 C 123.746094 131.417969 122.582031 131.835938 121.398438 132.195312 C 120.214844 132.550781 119.015625 132.851562 117.800781 133.09375 C 116.589844 133.335938 115.367188 133.515625 114.132812 133.636719 C 112.902344 133.757812 111.667969 133.820312 110.433594 133.820312 C 109.195312 133.820312 107.960938 133.757812 106.730469 133.636719 C 105.496094 133.515625 104.277344 133.335938 103.0625 133.09375 C 101.847656 132.851562 100.648438 132.550781 99.464844 132.195312 C 98.28125 131.835938 97.117188 131.417969 95.976562 130.945312 C 94.832031 130.472656 93.714844 129.941406 92.625 129.359375 C 91.53125 128.777344 90.472656 128.140625 89.445312 127.453125 C 88.414062 126.765625 87.421875 126.03125 86.46875 125.246094 C 85.511719 124.460938 84.59375 123.628906 83.71875 122.753906 C 82.84375 121.878906 82.015625 120.964844 81.230469 120.007812 C 80.445312 119.050781 79.710938 118.058594 79.023438 117.03125 C 78.335938 116.003906 77.699219 114.941406 77.117188 113.851562 C 76.53125 112.761719 76.003906 111.644531 75.53125 110.5 C 75.058594 109.355469 74.640625 108.191406 74.28125 107.007812 C 73.921875 105.824219 73.621094 104.625 73.382812 103.414062 C 73.140625 102.199219 72.957031 100.976562 72.835938 99.746094 C 72.714844 98.515625 72.65625 97.28125 72.65625 96.042969 L 72.65625 86.277344 C 72.65625 85.042969 72.714844 83.808594 72.835938 82.574219 C 72.957031 81.34375 73.140625 80.121094 73.382812 78.910156 C 73.621094 77.695312 73.921875 76.496094 74.28125 75.3125 C 74.640625 74.128906 75.058594 72.964844 75.53125 71.820312 C 76.003906 70.679688 76.53125 69.5625 77.117188 68.46875 C 77.699219 67.378906 78.335938 66.320312 79.023438 65.289062 C 79.710938 64.261719 80.445312 63.269531 81.230469 62.3125 C 82.015625 61.355469 82.84375 60.441406 83.71875 59.566406 C 84.59375 58.691406 85.511719 57.863281 86.46875 57.078125 C 87.421875 56.292969 88.414062 55.554688 89.445312 54.867188 C 90.472656 54.179688 91.53125 53.546875 92.625 52.960938 C 93.714844 52.378906 94.832031 51.851562 95.976562 51.378906 C 97.117188 50.902344 98.28125 50.488281 99.464844 50.128906 C 100.648438 49.769531 101.847656 49.46875 103.0625 49.226562 C 104.277344 48.984375 105.496094 48.804688 106.730469 48.683594 C 107.960938 48.5625 109.195312 48.5 110.433594 48.5 Z M 110.433594 48.5 " fill-opacity="1" fill-rule="nonzero"/><path fill="#002c5c" d="M 72.65625 90.328125 C 123.394531 90.847656 137.519531 62.113281 137.519531 62.113281 C 137.519531 62.113281 139.917969 85.105469 148.207031 91.160156 C 152.542969 67.039062 139.8125 45.082031 106.773438 43.4375 C 73.730469 41.796875 64.808594 79.550781 72.65625 90.328125 Z M 72.65625 90.328125 " fill-opacity="1" fill-rule="nonzero"/></g></g></svg>