<svg xmlns="http://www.w3.org/2000/svg" xmlns:xlink="http://www.w3.org/1999/xlink" width="359" zoomAndPan="magnify" viewBox="0 0 269.25 269.249989" height="359" preserveAspectRatio="xMidYMid meet" version="1.0"><defs><filter x="0%" y="0%" width="100%" height="100%" id="7ed4fbd0f2"><feColorMatrix values="0 0 0 0 1 0 0 0 0 1 0 0 0 0 1 0 0 0 1 0" color-interpolation-filters="sRGB"/></filter><g/><clipPath id="a8b71084c3"><path d="M 1 4 L 175.539062 4 L 175.539062 174 L 1 174 Z M 1 4 " clip-rule="nonzero"/></clipPath><mask id="85ab323f9f"><g filter="url(#7ed4fbd0f2)"><rect x="-107.235" width="387.72" fill="#000000" y="-87.234998" height="387.719984" fill-opacity="0.7"/></g></mask><clipPath id="b072332c50"><path d="M 0.40625 0.757812 L 174.53125 0.757812 L 174.53125 169.605469 L 0.40625 169.605469 Z M 0.40625 0.757812 " clip-rule="nonzero"/></clipPath><clipPath id="154faed785"><path d="M 87.207031 0.757812 C 39.265625 0.757812 0.40625 38.554688 0.40625 85.183594 C 0.40625 131.808594 39.265625 169.605469 87.207031 169.605469 C 135.144531 169.605469 174.007812 131.808594 174.007812 85.183594 C 174.007812 38.554688 135.144531 0.757812 87.207031 0.757812 Z M 87.207031 0.757812 " clip-rule="nonzero"/></clipPath><clipPath id="d03dcb901d"><path d="M 0.40625 0.757812 L 174 0.757812 L 174 169.605469 L 0.40625 169.605469 Z M 0.40625 0.757812 " clip-rule="nonzero"/></clipPath><clipPath id="b9dfcad0e6"><path d="M 87.207031 0.757812 C 39.265625 0.757812 0.40625 38.554688 0.40625 85.183594 C 0.40625 131.808594 39.265625 169.605469 87.207031 169.605469 C 135.144531 169.605469 174.007812 131.808594 174.007812 85.183594 C 174.007812 38.554688 135.144531 0.757812 87.207031 0.757812 Z M 87.207031 0.757812 " clip-rule="nonzero"/></clipPath><clipPath id="d623ad559e"><rect x="0" width="175" y="0" height="170"/></clipPath><clipPath id="c1982b2a71"><rect x="0" width="175" y="0" height="170"/></clipPath><clipPath id="7c0517d534"><path d="M 0.824219 0.800781 L 171.320312 0.800781 L 171.320312 171.300781 L 0.824219 171.300781 Z M 0.824219 0.800781 " clip-rule="nonzero"/></clipPath><clipPath id="0c0e808a2e"><path d="M 24 105 L 148 105 L 148 171.300781 L 24 171.300781 Z M 24 105 " clip-rule="nonzero"/></clipPath><clipPath id="67df4fffc5"><rect x="0" width="176" y="0" height="206"/></clipPath></defs><g transform="matrix(1, 0, 0, 1, 48, 28)"><g clip-path="url(#67df4fffc5)"><g clip-path="url(#a8b71084c3)"><g mask="url(#85ab323f9f)"><g transform="matrix(1, 0, 0, 1, 1, 4)"><g clip-path="url(#c1982b2a71)"><g clip-path="url(#b072332c50)"><g clip-path="url(#154faed785)"><g transform="matrix(1, 0, 0, 1, -0.000000000000007105, 0)"><g clip-path="url(#d623ad559e)"><g clip-path="url(#d03dcb901d)"><g clip-path="url(#b9dfcad0e6)"><path fill="#000000" d="M 0.40625 0.757812 L 173.871094 0.757812 L 173.871094 169.605469 L 0.40625 169.605469 Z M 0.40625 0.757812 " fill-opacity="1" fill-rule="nonzero"/></g></g></g></g></g></g></g></g></g></g><g clip-path="url(#7c0517d534)"><path fill="#ffadad" d="M 171.683594 86.230469 C 171.683594 87.628906 171.652344 89.027344 171.582031 90.421875 C 171.511719 91.820312 171.410156 93.214844 171.273438 94.605469 C 171.136719 95.996094 170.964844 97.382812 170.761719 98.765625 C 170.554688 100.148438 170.316406 101.527344 170.042969 102.898438 C 169.769531 104.269531 169.464844 105.632812 169.125 106.988281 C 168.785156 108.347656 168.414062 109.691406 168.007812 111.03125 C 167.601562 112.367188 167.160156 113.695312 166.691406 115.011719 C 166.21875 116.328125 165.71875 117.632812 165.183594 118.925781 C 164.648438 120.214844 164.082031 121.496094 163.484375 122.757812 C 162.886719 124.023438 162.257812 125.269531 161.597656 126.503906 C 160.9375 127.738281 160.25 128.953125 159.53125 130.152344 C 158.8125 131.351562 158.0625 132.53125 157.289062 133.695312 C 156.511719 134.855469 155.707031 136 154.871094 137.121094 C 154.039062 138.246094 153.179688 139.347656 152.292969 140.429688 C 151.40625 141.507812 150.492188 142.566406 149.554688 143.605469 C 148.613281 144.640625 147.652344 145.652344 146.664062 146.640625 C 145.675781 147.628906 144.660156 148.59375 143.625 149.53125 C 142.589844 150.472656 141.53125 151.382812 140.449219 152.269531 C 139.371094 153.15625 138.269531 154.019531 137.144531 154.851562 C 136.023438 155.683594 134.878906 156.488281 133.71875 157.265625 C 132.554688 158.042969 131.375 158.789062 130.175781 159.507812 C 128.976562 160.226562 127.757812 160.917969 126.527344 161.574219 C 125.292969 162.234375 124.042969 162.863281 122.78125 163.460938 C 121.515625 164.058594 120.238281 164.625 118.945312 165.160156 C 117.65625 165.695312 116.351562 166.199219 115.035156 166.667969 C 113.71875 167.140625 112.390625 167.578125 111.054688 167.984375 C 109.714844 168.390625 108.367188 168.761719 107.011719 169.101562 C 105.65625 169.441406 104.292969 169.75 102.921875 170.019531 C 101.550781 170.292969 100.171875 170.53125 98.789062 170.738281 C 97.40625 170.941406 96.019531 171.113281 94.628906 171.25 C 93.234375 171.386719 91.84375 171.492188 90.445312 171.558594 C 89.050781 171.628906 87.652344 171.664062 86.253906 171.664062 C 84.855469 171.664062 83.457031 171.628906 82.0625 171.558594 C 80.664062 171.492188 79.273438 171.386719 77.878906 171.25 C 76.488281 171.113281 75.101562 170.941406 73.71875 170.738281 C 72.335938 170.53125 70.957031 170.292969 69.585938 170.019531 C 68.214844 169.75 66.851562 169.441406 65.496094 169.101562 C 64.140625 168.761719 62.792969 168.390625 61.453125 167.984375 C 60.117188 167.578125 58.789062 167.140625 57.472656 166.667969 C 56.15625 166.199219 54.851562 165.695312 53.5625 165.160156 C 52.269531 164.625 50.992188 164.058594 49.726562 163.460938 C 48.464844 162.863281 47.214844 162.234375 45.980469 161.574219 C 44.75 160.917969 43.53125 160.226562 42.332031 159.507812 C 41.132812 158.789062 39.953125 158.042969 38.789062 157.265625 C 37.628906 156.488281 36.484375 155.683594 35.363281 154.851562 C 34.238281 154.019531 33.136719 153.15625 32.058594 152.269531 C 30.976562 151.382812 29.917969 150.472656 28.882812 149.53125 C 27.847656 148.59375 26.832031 147.628906 25.84375 146.640625 C 24.855469 145.652344 23.890625 144.640625 22.953125 143.605469 C 22.015625 142.566406 21.101562 141.507812 20.214844 140.429688 C 19.328125 139.347656 18.46875 138.246094 17.636719 137.121094 C 16.800781 136 15.996094 134.855469 15.21875 133.695312 C 14.445312 132.53125 13.695312 131.351562 12.976562 130.152344 C 12.257812 128.953125 11.570312 127.738281 10.910156 126.503906 C 10.25 125.269531 9.621094 124.023438 9.023438 122.757812 C 8.425781 121.496094 7.859375 120.214844 7.324219 118.925781 C 6.789062 117.632812 6.289062 116.328125 5.816406 115.011719 C 5.34375 113.695312 4.90625 112.367188 4.5 111.03125 C 4.09375 109.691406 3.722656 108.347656 3.382812 106.988281 C 3.042969 105.632812 2.738281 104.269531 2.464844 102.898438 C 2.191406 101.527344 1.953125 100.148438 1.746094 98.765625 C 1.542969 97.382812 1.371094 95.996094 1.234375 94.605469 C 1.097656 93.214844 0.996094 91.820312 0.925781 90.421875 C 0.855469 89.027344 0.824219 87.628906 0.824219 86.230469 C 0.824219 84.832031 0.855469 83.4375 0.925781 82.039062 C 0.996094 80.644531 1.097656 79.25 1.234375 77.859375 C 1.371094 76.464844 1.542969 75.078125 1.746094 73.695312 C 1.953125 72.3125 2.191406 70.9375 2.464844 69.566406 C 2.738281 68.195312 3.042969 66.828125 3.382812 65.472656 C 3.722656 64.117188 4.09375 62.769531 4.5 61.433594 C 4.90625 60.09375 5.34375 58.765625 5.816406 57.449219 C 6.289062 56.132812 6.789062 54.832031 7.324219 53.539062 C 7.859375 52.246094 8.425781 50.96875 9.023438 49.703125 C 9.621094 48.441406 10.25 47.191406 10.910156 45.960938 C 11.570312 44.726562 12.257812 43.511719 12.976562 42.3125 C 13.695312 41.113281 14.445312 39.929688 15.21875 38.769531 C 15.996094 37.605469 16.800781 36.464844 17.636719 35.339844 C 18.46875 34.21875 19.328125 33.117188 20.214844 32.035156 C 21.101562 30.953125 22.015625 29.894531 22.953125 28.859375 C 23.890625 27.824219 24.855469 26.8125 25.84375 25.824219 C 26.832031 24.832031 27.847656 23.871094 28.882812 22.929688 C 29.917969 21.992188 30.976562 21.078125 32.058594 20.191406 C 33.136719 19.304688 34.238281 18.445312 35.363281 17.613281 C 36.484375 16.78125 37.628906 15.976562 38.789062 15.199219 C 39.953125 14.421875 41.132812 13.671875 42.332031 12.953125 C 43.53125 12.234375 44.75 11.546875 45.980469 10.886719 C 47.214844 10.230469 48.464844 9.601562 49.726562 9.003906 C 50.992188 8.40625 52.269531 7.839844 53.5625 7.304688 C 54.851562 6.769531 56.15625 6.265625 57.472656 5.792969 C 58.789062 5.324219 60.117188 4.886719 61.453125 4.480469 C 62.792969 4.074219 64.140625 3.699219 65.496094 3.359375 C 66.851562 3.019531 68.214844 2.714844 69.585938 2.441406 C 70.957031 2.167969 72.335938 1.929688 73.71875 1.726562 C 75.101562 1.519531 76.488281 1.347656 77.878906 1.210938 C 79.273438 1.074219 80.664062 0.972656 82.0625 0.902344 C 83.457031 0.835938 84.855469 0.800781 86.253906 0.800781 C 87.652344 0.800781 89.050781 0.835938 90.445312 0.902344 C 91.84375 0.972656 93.234375 1.074219 94.628906 1.210938 C 96.019531 1.347656 97.40625 1.519531 98.789062 1.726562 C 100.171875 1.929688 101.550781 2.167969 102.921875 2.441406 C 104.292969 2.714844 105.65625 3.019531 107.011719 3.359375 C 108.367188 3.699219 109.714844 4.074219 111.054688 4.480469 C 112.390625 4.886719 113.71875 5.324219 115.035156 5.792969 C 116.351562 6.265625 117.65625 6.769531 118.945312 7.304688 C 120.238281 7.839844 121.515625 8.40625 122.78125 9.003906 C 124.042969 9.601562 125.292969 10.230469 126.527344 10.886719 C 127.757812 11.546875 128.976562 12.234375 130.175781 12.953125 C 131.375 13.671875 132.554688 14.421875 133.71875 15.199219 C 134.878906 15.976562 136.023438 16.78125 137.144531 17.613281 C 138.269531 18.445312 139.371094 19.304688 140.449219 20.191406 C 141.53125 21.078125 142.589844 21.992188 143.625 22.929688 C 144.660156 23.871094 145.675781 24.832031 146.664062 25.824219 C 147.652344 26.8125 148.613281 27.824219 149.554688 28.859375 C 150.492188 29.894531 151.40625 30.953125 152.292969 32.035156 C 153.179688 33.117188 154.039062 34.21875 154.871094 35.339844 C 155.707031 36.464844 156.511719 37.605469 157.289062 38.769531 C 158.0625 39.929688 158.8125 41.113281 159.53125 42.3125 C 160.25 43.511719 160.9375 44.726562 161.597656 45.960938 C 162.257812 47.191406 162.886719 48.441406 163.484375 49.703125 C 164.082031 50.96875 164.648438 52.246094 165.183594 53.539062 C 165.71875 54.832031 166.21875 56.132812 166.691406 57.449219 C 167.160156 58.765625 167.601562 60.09375 168.007812 61.433594 C 168.414062 62.769531 168.785156 64.117188 169.125 65.472656 C 169.464844 66.828125 169.769531 68.195312 170.042969 69.566406 C 170.316406 70.9375 170.554688 72.3125 170.761719 73.695312 C 170.964844 75.078125 171.136719 76.464844 171.273438 77.859375 C 171.410156 79.25 171.511719 80.644531 171.582031 82.039062 C 171.652344 83.4375 171.683594 84.832031 171.683594 86.230469 Z M 171.683594 86.230469 " fill-opacity="1" fill-rule="nonzero"/></g><path fill="#002c5c" d="M 108.109375 38.359375 C 103.773438 21.71875 54.339844 15.132812 47.757812 54.777344 C 41.179688 94.425781 17.90625 127.492188 70.390625 135.515625 C 122.875 143.542969 134.109375 124.121094 130.902344 98.601562 C 127.691406 73.082031 121.75 36.859375 108.109375 38.359375 Z M 108.109375 38.359375 " fill-opacity="1" fill-rule="nonzero"/><g clip-path="url(#0c0e808a2e)"><path fill="#0cc0df" d="M 147.585938 145.753906 C 146.59375 146.777344 145.578125 147.773438 144.535156 148.746094 C 143.492188 149.71875 142.425781 150.664062 141.335938 151.582031 C 140.246094 152.5 139.132812 153.390625 138 154.253906 C 136.863281 155.117188 135.707031 155.949219 134.53125 156.753906 C 133.355469 157.558594 132.160156 158.335938 130.945312 159.078125 C 129.730469 159.824219 128.496094 160.539062 127.246094 161.222656 C 125.996094 161.90625 124.726562 162.558594 123.445312 163.179688 C 122.160156 163.796875 120.863281 164.386719 119.550781 164.941406 C 118.238281 165.496094 116.910156 166.019531 115.574219 166.507812 C 114.234375 166.996094 112.882812 167.453125 111.523438 167.871094 C 110.160156 168.292969 108.789062 168.679688 107.40625 169.035156 C 106.027344 169.386719 104.636719 169.703125 103.242188 169.988281 C 101.84375 170.269531 100.441406 170.519531 99.03125 170.730469 C 97.621094 170.945312 96.207031 171.125 94.789062 171.265625 C 93.371094 171.40625 91.949219 171.515625 90.527344 171.585938 C 89.105469 171.65625 87.679688 171.691406 86.253906 171.691406 C 84.828125 171.691406 83.402344 171.65625 81.980469 171.585938 C 80.558594 171.515625 79.136719 171.40625 77.71875 171.265625 C 76.300781 171.125 74.886719 170.945312 73.476562 170.730469 C 72.066406 170.519531 70.664062 170.269531 69.265625 169.988281 C 67.871094 169.703125 66.480469 169.386719 65.101562 169.035156 C 63.71875 168.679688 62.347656 168.292969 60.984375 167.871094 C 59.625 167.453125 58.273438 166.996094 56.933594 166.507812 C 55.597656 166.019531 54.269531 165.496094 52.957031 164.941406 C 51.644531 164.386719 50.347656 163.796875 49.0625 163.179688 C 47.78125 162.558594 46.511719 161.90625 45.261719 161.222656 C 44.011719 160.539062 42.777344 159.824219 41.5625 159.078125 C 40.347656 158.335938 39.152344 157.558594 37.976562 156.753906 C 36.800781 155.949219 35.644531 155.117188 34.507812 154.253906 C 33.375 153.390625 32.261719 152.5 31.171875 151.582031 C 30.082031 150.664062 29.015625 149.71875 27.972656 148.746094 C 26.929688 147.773438 25.914062 146.777344 24.921875 145.753906 C 25.554688 144.257812 26.238281 142.785156 26.980469 141.339844 C 27.71875 139.890625 28.511719 138.472656 29.355469 137.085938 C 30.199219 135.695312 31.09375 134.339844 32.039062 133.015625 C 32.980469 131.695312 33.972656 130.40625 35.007812 129.15625 C 36.046875 127.90625 37.128906 126.695312 38.253906 125.523438 C 39.382812 124.351562 40.550781 123.222656 41.757812 122.136719 C 42.96875 121.050781 44.214844 120.011719 45.5 119.015625 C 46.785156 118.019531 48.105469 117.074219 49.457031 116.175781 C 50.8125 115.277344 52.199219 114.429688 53.613281 113.632812 C 55.03125 112.839844 56.476562 112.09375 57.945312 111.402344 C 59.417969 110.710938 60.910156 110.078125 62.429688 109.496094 C 63.945312 108.914062 65.484375 108.386719 67.039062 107.917969 C 68.59375 107.449219 70.164062 107.039062 71.75 106.683594 C 73.335938 106.332031 74.933594 106.035156 76.542969 105.796875 C 78.148438 105.5625 79.765625 105.382812 81.386719 105.265625 C 83.003906 105.144531 84.628906 105.085938 86.253906 105.085938 C 87.878906 105.085938 89.5 105.144531 91.121094 105.265625 C 92.742188 105.382812 94.359375 105.5625 95.964844 105.796875 C 97.574219 106.035156 99.171875 106.332031 100.757812 106.683594 C 102.34375 107.039062 103.914062 107.449219 105.46875 107.917969 C 107.023438 108.386719 108.5625 108.914062 110.078125 109.496094 C 111.597656 110.078125 113.089844 110.710938 114.5625 111.402344 C 116.03125 112.09375 117.476562 112.839844 118.894531 113.632812 C 120.308594 114.429688 121.695312 115.277344 123.050781 116.175781 C 124.402344 117.074219 125.722656 118.019531 127.007812 119.015625 C 128.292969 120.011719 129.539062 121.050781 130.75 122.136719 C 131.957031 123.222656 133.125 124.351562 134.253906 125.523438 C 135.378906 126.695312 136.460938 127.90625 137.5 129.15625 C 138.535156 130.40625 139.527344 131.695312 140.46875 133.015625 C 141.414062 134.339844 142.308594 135.695312 143.152344 137.085938 C 143.996094 138.472656 144.789062 139.890625 145.527344 141.339844 C 146.269531 142.785156 146.953125 144.257812 147.585938 145.753906 Z M 147.585938 145.753906 " fill-opacity="1" fill-rule="nonzero"/></g><path fill="#ffadad" d="M 86.21875 86.230469 C 87.011719 86.230469 87.792969 86.308594 88.566406 86.460938 C 89.339844 86.617188 90.09375 86.84375 90.824219 87.148438 C 91.554688 87.449219 92.246094 87.820312 92.902344 88.257812 C 93.558594 88.699219 94.167969 89.195312 94.726562 89.753906 C 95.285156 90.3125 95.785156 90.921875 96.222656 91.578125 C 96.660156 92.234375 97.03125 92.925781 97.332031 93.65625 C 97.636719 94.386719 97.863281 95.140625 98.019531 95.914062 C 98.171875 96.6875 98.25 97.472656 98.25 98.261719 L 98.25 108.871094 C 98.25 109.660156 98.171875 110.441406 98.019531 111.21875 C 97.863281 111.992188 97.636719 112.746094 97.332031 113.472656 C 97.03125 114.203125 96.660156 114.898438 96.222656 115.554688 C 95.785156 116.210938 95.285156 116.820312 94.726562 117.375 C 94.167969 117.933594 93.558594 118.433594 92.902344 118.871094 C 92.246094 119.3125 91.554688 119.683594 90.824219 119.984375 C 90.09375 120.285156 89.339844 120.515625 88.566406 120.667969 C 87.792969 120.824219 87.011719 120.898438 86.21875 120.898438 C 85.429688 120.898438 84.648438 120.824219 83.875 120.667969 C 83.097656 120.515625 82.347656 120.285156 81.617188 119.984375 C 80.886719 119.683594 80.195312 119.3125 79.539062 118.871094 C 78.878906 118.433594 78.273438 117.933594 77.714844 117.375 C 77.15625 116.820312 76.65625 116.210938 76.21875 115.554688 C 75.78125 114.898438 75.410156 114.203125 75.105469 113.472656 C 74.804688 112.746094 74.578125 111.992188 74.421875 111.21875 C 74.269531 110.441406 74.191406 109.660156 74.191406 108.871094 L 74.191406 98.261719 C 74.191406 97.472656 74.269531 96.6875 74.421875 95.914062 C 74.578125 95.140625 74.804688 94.386719 75.105469 93.65625 C 75.410156 92.925781 75.78125 92.234375 76.21875 91.578125 C 76.65625 90.921875 77.15625 90.3125 77.714844 89.753906 C 78.273438 89.195312 78.878906 88.699219 79.539062 88.257812 C 80.195312 87.820312 80.886719 87.449219 81.617188 87.148438 C 82.347656 86.84375 83.097656 86.617188 83.875 86.460938 C 84.648438 86.308594 85.429688 86.230469 86.21875 86.230469 Z M 86.21875 86.230469 " fill-opacity="1" fill-rule="nonzero"/><path fill="#ffadad" d="M 64.292969 78.65625 C 64.292969 79.15625 64.246094 79.648438 64.148438 80.136719 C 64.050781 80.625 63.90625 81.101562 63.71875 81.5625 C 63.527344 82.019531 63.292969 82.457031 63.015625 82.871094 C 62.738281 83.285156 62.425781 83.667969 62.074219 84.023438 C 61.71875 84.375 61.335938 84.6875 60.921875 84.964844 C 60.507812 85.242188 60.070312 85.476562 59.613281 85.667969 C 59.152344 85.855469 58.675781 86 58.1875 86.097656 C 57.699219 86.195312 57.207031 86.242188 56.707031 86.242188 C 56.210938 86.242188 55.71875 86.195312 55.230469 86.097656 C 54.742188 86 54.265625 85.855469 53.804688 85.667969 C 53.34375 85.476562 52.910156 85.242188 52.496094 84.964844 C 52.082031 84.6875 51.695312 84.375 51.34375 84.023438 C 50.992188 83.667969 50.679688 83.285156 50.402344 82.871094 C 50.125 82.457031 49.890625 82.019531 49.699219 81.5625 C 49.507812 81.101562 49.367188 80.625 49.269531 80.136719 C 49.171875 79.648438 49.121094 79.15625 49.121094 78.65625 C 49.121094 78.160156 49.171875 77.667969 49.269531 77.179688 C 49.367188 76.6875 49.507812 76.214844 49.699219 75.753906 C 49.890625 75.292969 50.125 74.859375 50.402344 74.441406 C 50.679688 74.027344 50.992188 73.644531 51.34375 73.292969 C 51.695312 72.941406 52.082031 72.628906 52.496094 72.351562 C 52.910156 72.074219 53.34375 71.839844 53.804688 71.648438 C 54.265625 71.457031 54.742188 71.316406 55.230469 71.21875 C 55.71875 71.121094 56.210938 71.070312 56.707031 71.070312 C 57.207031 71.070312 57.699219 71.121094 58.1875 71.21875 C 58.675781 71.316406 59.152344 71.457031 59.613281 71.648438 C 60.070312 71.839844 60.507812 72.074219 60.921875 72.351562 C 61.335938 72.628906 61.71875 72.941406 62.074219 73.292969 C 62.425781 73.644531 62.738281 74.027344 63.015625 74.441406 C 63.292969 74.859375 63.527344 75.292969 63.71875 75.753906 C 63.90625 76.214844 64.050781 76.6875 64.148438 77.179688 C 64.246094 77.667969 64.292969 78.160156 64.292969 78.65625 Z M 64.292969 78.65625 " fill-opacity="1" fill-rule="nonzero"/><path fill="#ffadad" d="M 122.613281 78.65625 C 122.613281 79.15625 122.5625 79.648438 122.464844 80.136719 C 122.367188 80.625 122.222656 81.101562 122.035156 81.5625 C 121.84375 82.019531 121.609375 82.457031 121.332031 82.871094 C 121.054688 83.285156 120.742188 83.667969 120.390625 84.023438 C 120.039062 84.375 119.652344 84.6875 119.238281 84.964844 C 118.824219 85.242188 118.390625 85.476562 117.929688 85.667969 C 117.46875 85.855469 116.992188 86 116.503906 86.097656 C 116.015625 86.195312 115.523438 86.242188 115.027344 86.242188 C 114.527344 86.242188 114.035156 86.195312 113.546875 86.097656 C 113.058594 86 112.582031 85.855469 112.121094 85.667969 C 111.664062 85.476562 111.226562 85.242188 110.8125 84.964844 C 110.398438 84.6875 110.015625 84.375 109.660156 84.023438 C 109.308594 83.667969 108.996094 83.285156 108.71875 82.871094 C 108.441406 82.457031 108.207031 82.019531 108.015625 81.5625 C 107.828125 81.101562 107.683594 80.625 107.585938 80.136719 C 107.488281 79.648438 107.441406 79.15625 107.441406 78.65625 C 107.441406 78.160156 107.488281 77.667969 107.585938 77.179688 C 107.683594 76.6875 107.828125 76.214844 108.015625 75.753906 C 108.207031 75.292969 108.441406 74.859375 108.71875 74.441406 C 108.996094 74.027344 109.308594 73.644531 109.660156 73.292969 C 110.015625 72.941406 110.398438 72.628906 110.8125 72.351562 C 111.226562 72.074219 111.664062 71.839844 112.121094 71.648438 C 112.582031 71.457031 113.058594 71.316406 113.546875 71.21875 C 114.035156 71.121094 114.527344 71.070312 115.027344 71.070312 C 115.523438 71.070312 116.015625 71.121094 116.503906 71.21875 C 116.992188 71.316406 117.46875 71.457031 117.929688 71.648438 C 118.390625 71.839844 118.824219 72.074219 119.238281 72.351562 C 119.652344 72.628906 120.039062 72.941406 120.390625 73.292969 C 120.742188 73.644531 121.054688 74.027344 121.332031 74.441406 C 121.609375 74.859375 121.84375 75.292969 122.035156 75.753906 C 122.222656 76.214844 122.367188 76.6875 122.464844 77.179688 C 122.5625 77.667969 122.613281 78.160156 122.613281 78.65625 Z M 122.613281 78.65625 " fill-opacity="1" fill-rule="nonzero"/><path fill="#ffd6d6" d="M 86.253906 38.359375 C 87.222656 38.359375 88.1875 38.40625 89.148438 38.5 C 90.113281 38.59375 91.066406 38.738281 92.015625 38.925781 C 92.964844 39.113281 93.902344 39.351562 94.828125 39.628906 C 95.753906 39.910156 96.664062 40.238281 97.558594 40.605469 C 98.453125 40.976562 99.328125 41.390625 100.179688 41.847656 C 101.035156 42.304688 101.863281 42.800781 102.667969 43.335938 C 103.472656 43.875 104.25 44.449219 104.996094 45.066406 C 105.746094 45.679688 106.460938 46.328125 107.144531 47.011719 C 107.828125 47.695312 108.476562 48.414062 109.089844 49.160156 C 109.707031 49.910156 110.28125 50.683594 110.820312 51.488281 C 111.355469 52.292969 111.851562 53.121094 112.308594 53.976562 C 112.765625 54.828125 113.179688 55.703125 113.550781 56.597656 C 113.917969 57.492188 114.246094 58.402344 114.527344 59.328125 C 114.804688 60.253906 115.042969 61.191406 115.230469 62.140625 C 115.417969 63.089844 115.5625 64.042969 115.65625 65.007812 C 115.75 65.96875 115.796875 66.9375 115.796875 67.902344 L 115.796875 75.539062 C 115.796875 76.507812 115.75 77.472656 115.65625 78.4375 C 115.5625 79.398438 115.417969 80.355469 115.230469 81.304688 C 115.042969 82.253906 114.804688 83.191406 114.527344 84.117188 C 114.246094 85.042969 113.917969 85.953125 113.550781 86.847656 C 113.179688 87.742188 112.765625 88.613281 112.308594 89.46875 C 111.851562 90.320312 111.355469 91.148438 110.820312 91.953125 C 110.28125 92.757812 109.707031 93.535156 109.089844 94.285156 C 108.476562 95.03125 107.828125 95.746094 107.144531 96.433594 C 106.460938 97.117188 105.746094 97.765625 104.996094 98.378906 C 104.25 98.992188 103.472656 99.570312 102.667969 100.105469 C 101.863281 100.644531 101.035156 101.140625 100.179688 101.597656 C 99.328125 102.054688 98.453125 102.464844 97.558594 102.835938 C 96.664062 103.207031 95.753906 103.53125 94.828125 103.8125 C 93.902344 104.09375 92.964844 104.328125 92.015625 104.519531 C 91.066406 104.707031 90.113281 104.847656 89.148438 104.941406 C 88.1875 105.039062 87.222656 105.085938 86.253906 105.085938 C 85.285156 105.085938 84.320312 105.039062 83.359375 104.941406 C 82.394531 104.847656 81.4375 104.707031 80.488281 104.519531 C 79.539062 104.328125 78.601562 104.09375 77.675781 103.8125 C 76.75 103.53125 75.839844 103.207031 74.945312 102.835938 C 74.054688 102.464844 73.179688 102.054688 72.324219 101.597656 C 71.472656 101.140625 70.644531 100.644531 69.839844 100.105469 C 69.035156 99.570312 68.257812 98.992188 67.511719 98.378906 C 66.761719 97.765625 66.046875 97.117188 65.363281 96.433594 C 64.679688 95.746094 64.027344 95.03125 63.414062 94.285156 C 62.800781 93.535156 62.226562 92.757812 61.6875 91.953125 C 61.148438 91.148438 60.652344 90.320312 60.199219 89.46875 C 59.742188 88.613281 59.328125 87.742188 58.957031 86.847656 C 58.585938 85.953125 58.261719 85.042969 57.980469 84.117188 C 57.699219 83.191406 57.464844 82.253906 57.277344 81.304688 C 57.085938 80.355469 56.945312 79.398438 56.851562 78.4375 C 56.757812 77.472656 56.707031 76.507812 56.707031 75.539062 L 56.707031 67.902344 C 56.707031 66.9375 56.757812 65.96875 56.851562 65.007812 C 56.945312 64.042969 57.085938 63.089844 57.277344 62.140625 C 57.464844 61.191406 57.699219 60.253906 57.980469 59.328125 C 58.261719 58.402344 58.585938 57.492188 58.957031 56.597656 C 59.328125 55.703125 59.742188 54.828125 60.199219 53.976562 C 60.652344 53.121094 61.148438 52.292969 61.6875 51.488281 C 62.226562 50.683594 62.800781 49.910156 63.414062 49.160156 C 64.027344 48.414062 64.679688 47.695312 65.363281 47.011719 C 66.046875 46.328125 66.761719 45.679688 67.511719 45.066406 C 68.257812 44.449219 69.035156 43.875 69.839844 43.335938 C 70.644531 42.800781 71.472656 42.304688 72.324219 41.847656 C 73.179688 41.390625 74.054688 40.976562 74.945312 40.605469 C 75.839844 40.238281 76.75 39.910156 77.675781 39.628906 C 78.601562 39.351562 79.539062 39.113281 80.488281 38.925781 C 81.4375 38.738281 82.394531 38.59375 83.359375 38.5 C 84.320312 38.40625 85.285156 38.359375 86.253906 38.359375 Z M 86.253906 38.359375 " fill-opacity="1" fill-rule="nonzero"/><path fill="#002c5c" d="M 56.707031 71.070312 C 96.390625 71.476562 107.441406 49.003906 107.441406 49.003906 C 107.441406 49.003906 109.316406 66.984375 115.796875 71.71875 C 119.1875 52.855469 109.230469 35.683594 83.390625 34.398438 C 57.550781 33.113281 50.570312 62.644531 56.707031 71.070312 Z M 56.707031 71.070312 " fill-opacity="1" fill-rule="nonzero"/><g fill="#000000" fill-opacity="1"><g transform="translate(16.46659, 201.88639)"><g><path d="M 1.5 0 L 1.5 -1.5 L 2.984375 -1.5 L 2.984375 -11.96875 L 1.5 -11.96875 L 1.5 -13.453125 L 5.984375 -13.453125 L 5.984375 -11.96875 L 4.484375 -11.96875 L 4.484375 -1.5 L 5.984375 -1.5 L 5.984375 0 Z M 1.5 0 "/></g></g></g><g fill="#000000" fill-opacity="1"><g transform="translate(26.434846, 201.88639)"><g><path d="M 0 0 L 0 -13.453125 L 1.5 -13.453125 L 1.5 -1.5 L 7.484375 -1.5 L 7.484375 0 Z M 0 0 "/></g></g></g><g fill="#000000" fill-opacity="1"><g transform="translate(36.403102, 201.88639)"><g/></g></g><g fill="#000000" fill-opacity="1"><g transform="translate(46.371359, 201.88639)"><g><path d="M 0 0 L 0 -13.453125 L 1.25 -13.453125 L 3.734375 -8.46875 L 6.234375 -13.453125 L 7.484375 -13.453125 L 7.484375 0 L 5.984375 0 L 5.984375 -9.96875 L 4.234375 -6.484375 L 3.234375 -6.484375 L 1.5 -9.96875 L 1.5 0 Z M 0 0 "/></g></g></g><g fill="#000000" fill-opacity="1"><g transform="translate(56.339615, 201.88639)"><g><path d="M 1.5 0 L 1.5 -1.5 L 2.984375 -1.5 L 2.984375 -11.96875 L 1.5 -11.96875 L 1.5 -13.453125 L 5.984375 -13.453125 L 5.984375 -11.96875 L 4.484375 -11.96875 L 4.484375 -1.5 L 5.984375 -1.5 L 5.984375 0 Z M 1.5 0 "/></g></g></g><g fill="#000000" fill-opacity="1"><g transform="translate(66.307871, 201.88639)"><g><path d="M 4.484375 -1.5 L 5.984375 -2.984375 L 5.984375 -10.46875 L 4.484375 -11.96875 L 2.984375 -11.96875 L 1.5 -10.46875 L 1.5 -2.984375 L 2.984375 -1.5 Z M 2.5 0 L 0 -2.5 L 0 -10.96875 L 2.5 -13.453125 L 4.984375 -13.453125 L 7.484375 -10.96875 L 7.484375 -2.5 L 4.984375 0 Z M 2.5 0 "/></g></g></g><g fill="#000000" fill-opacity="1"><g transform="translate(76.276128, 201.88639)"><g/></g></g><g fill="#000000" fill-opacity="1"><g transform="translate(86.244384, 201.88639)"><g><path d="M 4.484375 -7.484375 L 5.984375 -8.96875 L 5.984375 -10.46875 L 4.484375 -11.96875 L 1.5 -11.96875 L 1.5 -7.484375 Z M 0 0 L 0 -13.453125 L 4.984375 -13.453125 L 7.484375 -10.96875 L 7.484375 -8.46875 L 4.984375 -5.984375 L 1.5 -5.984375 L 1.5 0 Z M 0 0 "/></g></g></g><g fill="#000000" fill-opacity="1"><g transform="translate(96.212641, 201.88639)"><g><path d="M 4.484375 -7.484375 L 5.984375 -8.96875 L 5.984375 -10.46875 L 4.484375 -11.96875 L 1.5 -11.96875 L 1.5 -7.484375 Z M 0 0 L 0 -13.453125 L 4.984375 -13.453125 L 7.484375 -10.96875 L 7.484375 -8.46875 L 4.984375 -5.984375 L 4.734375 -5.984375 L 7.484375 -0.5 L 6.484375 0 L 6.234375 0 L 3.234375 -5.984375 L 1.5 -5.984375 L 1.5 0 Z M 0 0 "/></g></g></g><g fill="#000000" fill-opacity="1"><g transform="translate(106.180897, 201.88639)"><g><path d="M 4.484375 -1.5 L 5.984375 -2.984375 L 5.984375 -10.46875 L 4.484375 -11.96875 L 2.984375 -11.96875 L 1.5 -10.46875 L 1.5 -2.984375 L 2.984375 -1.5 Z M 2.5 0 L 0 -2.5 L 0 -10.96875 L 2.5 -13.453125 L 4.984375 -13.453125 L 7.484375 -10.96875 L 7.484375 -2.5 L 4.984375 0 Z M 2.5 0 "/></g></g></g><g fill="#000000" fill-opacity="1"><g transform="translate(116.149153, 201.88639)"><g><path d="M 0 0 L 0 -13.453125 L 7.484375 -13.453125 L 7.484375 -11.96875 L 1.5 -11.96875 L 1.5 -7.484375 L 5.984375 -7.484375 L 5.984375 -5.984375 L 1.5 -5.984375 L 1.5 0 Z M 0 0 "/></g></g></g><g fill="#000000" fill-opacity="1"><g transform="translate(126.11741, 201.88639)"><g><path d="M 1.5 0 L 1.5 -1.5 L 2.984375 -1.5 L 2.984375 -11.96875 L 1.5 -11.96875 L 1.5 -13.453125 L 5.984375 -13.453125 L 5.984375 -11.96875 L 4.484375 -11.96875 L 4.484375 -1.5 L 5.984375 -1.5 L 5.984375 0 Z M 1.5 0 "/></g></g></g><g fill="#000000" fill-opacity="1"><g transform="translate(136.085666, 201.88639)"><g><path d="M 0 0 L 0 -13.453125 L 1.5 -13.453125 L 1.5 -1.5 L 7.484375 -1.5 L 7.484375 0 Z M 0 0 "/></g></g></g><g fill="#000000" fill-opacity="1"><g transform="translate(146.053922, 201.88639)"><g><path d="M 4.484375 -1.5 L 5.984375 -2.984375 L 5.984375 -10.46875 L 4.484375 -11.96875 L 2.984375 -11.96875 L 1.5 -10.46875 L 1.5 -2.984375 L 2.984375 -1.5 Z M 2.5 0 L 0 -2.5 L 0 -10.96875 L 2.5 -13.453125 L 4.984375 -13.453125 L 7.484375 -10.96875 L 7.484375 -2.5 L 4.984375 0 Z M 2.5 0 "/></g></g></g></g></g></svg>